<?xml version="1.0" encoding="UTF-8"?>
<!DOCTYPE svg PUBLIC "-//W3C//DTD SVG 1.1//EN" "http://www.w3.org/Graphics/SVG/1.1/DTD/svg11.dtd">
<svg xmlns="http://www.w3.org/2000/svg" version="1.1" width="558px" height="555px" style="shape-rendering:geometricPrecision; text-rendering:geometricPrecision; image-rendering:optimizeQuality; fill-rule:evenodd; clip-rule:evenodd" xmlns:xlink="http://www.w3.org/1999/xlink">
<g><path style="opacity:0.004" fill="#ded4de" d="M 231.5,18.5 C 232.833,19.1667 232.833,19.1667 231.5,18.5 Z"/></g>
<g><path style="opacity:0.988" fill="#4a0f6f" d="M 351.5,55.5 C 349.243,55.0383 347.243,54.0383 345.5,52.5C 344.808,53.0253 344.308,53.6919 344,54.5C 343.667,52.8333 343.333,51.1667 343,49.5C 340.333,53.5 337.667,53.5 335,49.5C 332.333,53.5 329.667,53.5 327,49.5C 324.333,53.5 321.667,53.5 319,49.5C 316.333,53.5 313.667,53.5 311,49.5C 308.333,53.5 305.667,53.5 303,49.5C 300.333,53.5 297.667,53.5 295,49.5C 292.333,53.5 289.667,53.5 287,49.5C 284.333,53.5 281.667,53.5 279,49.5C 276.333,53.5 273.667,53.5 271,49.5C 268.333,53.5 265.667,53.5 263,49.5C 260.333,53.5 257.667,53.5 255,49.5C 252.333,53.5 249.667,53.5 247,49.5C 244.333,53.5 241.667,53.5 239,49.5C 236.333,53.5 233.667,53.5 231,49.5C 228.333,53.5 225.667,53.5 223,49.5C 220.333,53.5 217.667,53.5 215,49.5C 213.54,52.2098 211.54,52.8765 209,51.5C 207.899,53.3939 206.566,54.0606 205,53.5C 204,54.8333 203,56.1667 202,57.5C 201.29,56.0267 200.124,55.3601 198.5,55.5C 212.176,41.9981 225.843,28.4981 239.5,15C 242.274,13.2188 245.274,11.8855 248.5,11C 251.447,7.98575 255.113,6.65242 259.5,7C 263.3,4.06473 267.633,2.89806 272.5,3.5C 281.476,3.99475 290.142,5.82809 298.5,9C 302.982,12.044 307.648,14.7107 312.5,17C 325.91,29.3807 338.91,42.214 351.5,55.5 Z"/></g>
<g><path style="opacity:0.99" fill="#531371" d="M 351.5,55.5 C 354.003,57.8327 356.669,59.9993 359.5,62C 368.178,70.5374 376.512,79.3708 384.5,88.5C 383.12,89.7065 381.953,89.3731 381,87.5C 379.667,90.1667 378.333,90.1667 377,87.5C 375.667,90.1667 374.333,90.1667 373,87.5C 371.667,90.1667 370.333,90.1667 369,87.5C 367.667,90.1667 366.333,90.1667 365,87.5C 363.667,90.1667 362.333,90.1667 361,87.5C 359.667,90.1667 358.333,90.1667 357,87.5C 355.667,90.1667 354.333,90.1667 353,87.5C 351.667,90.1667 350.333,90.1667 349,87.5C 347.667,90.1667 346.333,90.1667 345,87.5C 343.667,90.1667 342.333,90.1667 341,87.5C 339.667,90.1667 338.333,90.1667 337,87.5C 335.667,90.1667 334.333,90.1667 333,87.5C 331.667,90.1667 330.333,90.1667 329,87.5C 327.667,90.1667 326.333,90.1667 325,87.5C 323.667,90.1667 322.333,90.1667 321,87.5C 319.667,90.1667 318.333,90.1667 317,87.5C 315.667,90.1667 314.333,90.1667 313,87.5C 311.667,90.1667 310.333,90.1667 309,87.5C 307.667,90.1667 306.333,90.1667 305,87.5C 303.667,90.1667 302.333,90.1667 301,87.5C 299.667,90.1667 298.333,90.1667 297,87.5C 295.667,90.1667 294.333,90.1667 293,87.5C 291.667,90.1667 290.333,90.1667 289,87.5C 287.667,90.1667 286.333,90.1667 285,87.5C 283.667,90.1667 282.333,90.1667 281,87.5C 279.667,90.1667 278.333,90.1667 277,87.5C 275.667,90.1667 274.333,90.1667 273,87.5C 271.667,90.1667 270.333,90.1667 269,87.5C 267.667,90.1667 266.333,90.1667 265,87.5C 263.667,90.1667 262.333,90.1667 261,87.5C 259.667,90.1667 258.333,90.1667 257,87.5C 255.667,90.1667 254.333,90.1667 253,87.5C 251.667,90.1667 250.333,90.1667 249,87.5C 247.667,90.1667 246.333,90.1667 245,87.5C 243.667,90.1667 242.333,90.1667 241,87.5C 239.667,90.1667 238.333,90.1667 237,87.5C 235.667,90.1667 234.333,90.1667 233,87.5C 231.667,90.1667 230.333,90.1667 229,87.5C 227.667,90.1667 226.333,90.1667 225,87.5C 223.667,90.1667 222.333,90.1667 221,87.5C 219.667,90.1667 218.333,90.1667 217,87.5C 215.667,90.1667 214.333,90.1667 213,87.5C 211.667,90.1667 210.333,90.1667 209,87.5C 207.667,90.1667 206.333,90.1667 205,87.5C 203.667,90.1667 202.333,90.1667 201,87.5C 199.667,90.1667 198.333,90.1667 197,87.5C 195.667,90.1667 194.333,90.1667 193,87.5C 191.667,90.1667 190.333,90.1667 189,87.5C 187.667,90.1667 186.333,90.1667 185,87.5C 183.667,90.1667 182.333,90.1667 181,87.5C 179.667,90.1667 178.333,90.1667 177,87.5C 175.667,90.1667 174.333,90.1667 173,87.5C 171.667,90.1667 170.333,90.1667 169,87.5C 169.178,89.4404 168.178,91.107 166,92.5C 164.209,90.4873 162.875,90.4873 162,92.5C 161.536,91.9056 161.369,91.2389 161.5,90.5C 165.356,86.4849 169.689,82.9849 174.5,80C 182.032,71.3017 190.032,63.1351 198.5,55.5C 200.124,55.3601 201.29,56.0267 202,57.5C 203,56.1667 204,54.8333 205,53.5C 206.566,54.0606 207.899,53.3939 209,51.5C 211.54,52.8765 213.54,52.2098 215,49.5C 217.667,53.5 220.333,53.5 223,49.5C 225.667,53.5 228.333,53.5 231,49.5C 233.667,53.5 236.333,53.5 239,49.5C 241.667,53.5 244.333,53.5 247,49.5C 249.667,53.5 252.333,53.5 255,49.5C 257.667,53.5 260.333,53.5 263,49.5C 265.667,53.5 268.333,53.5 271,49.5C 273.667,53.5 276.333,53.5 279,49.5C 281.667,53.5 284.333,53.5 287,49.5C 289.667,53.5 292.333,53.5 295,49.5C 297.667,53.5 300.333,53.5 303,49.5C 305.667,53.5 308.333,53.5 311,49.5C 313.667,53.5 316.333,53.5 319,49.5C 321.667,53.5 324.333,53.5 327,49.5C 329.667,53.5 332.333,53.5 335,49.5C 337.667,53.5 340.333,53.5 343,49.5C 343.333,51.1667 343.667,52.8333 344,54.5C 344.308,53.6919 344.808,53.0253 345.5,52.5C 347.243,54.0383 349.243,55.0383 351.5,55.5 Z"/></g>
<g><path style="opacity:0.991" fill="#5a1673" d="M 384.5,88.5 C 392.425,95.7582 400.092,103.425 407.5,111.5C 405.932,113.931 404.432,113.931 403,111.5C 317,112.833 231,112.833 145,111.5C 143.716,112.572 143.383,113.905 144,115.5C 141.626,112.712 140.293,113.046 140,116.5C 139.617,115.944 139.117,115.611 138.5,115.5C 139.495,110.522 142.495,107.522 147.5,106.5C 151.874,100.8 156.541,95.4667 161.5,90.5C 161.369,91.2389 161.536,91.9056 162,92.5C 162.875,90.4873 164.209,90.4873 166,92.5C 168.178,91.107 169.178,89.4404 169,87.5C 170.333,90.1667 171.667,90.1667 173,87.5C 174.333,90.1667 175.667,90.1667 177,87.5C 178.333,90.1667 179.667,90.1667 181,87.5C 182.333,90.1667 183.667,90.1667 185,87.5C 186.333,90.1667 187.667,90.1667 189,87.5C 190.333,90.1667 191.667,90.1667 193,87.5C 194.333,90.1667 195.667,90.1667 197,87.5C 198.333,90.1667 199.667,90.1667 201,87.5C 202.333,90.1667 203.667,90.1667 205,87.5C 206.333,90.1667 207.667,90.1667 209,87.5C 210.333,90.1667 211.667,90.1667 213,87.5C 214.333,90.1667 215.667,90.1667 217,87.5C 218.333,90.1667 219.667,90.1667 221,87.5C 222.333,90.1667 223.667,90.1667 225,87.5C 226.333,90.1667 227.667,90.1667 229,87.5C 230.333,90.1667 231.667,90.1667 233,87.5C 234.333,90.1667 235.667,90.1667 237,87.5C 238.333,90.1667 239.667,90.1667 241,87.5C 242.333,90.1667 243.667,90.1667 245,87.5C 246.333,90.1667 247.667,90.1667 249,87.5C 250.333,90.1667 251.667,90.1667 253,87.5C 254.333,90.1667 255.667,90.1667 257,87.5C 258.333,90.1667 259.667,90.1667 261,87.5C 262.333,90.1667 263.667,90.1667 265,87.5C 266.333,90.1667 267.667,90.1667 269,87.5C 270.333,90.1667 271.667,90.1667 273,87.5C 274.333,90.1667 275.667,90.1667 277,87.5C 278.333,90.1667 279.667,90.1667 281,87.5C 282.333,90.1667 283.667,90.1667 285,87.5C 286.333,90.1667 287.667,90.1667 289,87.5C 290.333,90.1667 291.667,90.1667 293,87.5C 294.333,90.1667 295.667,90.1667 297,87.5C 298.333,90.1667 299.667,90.1667 301,87.5C 302.333,90.1667 303.667,90.1667 305,87.5C 306.333,90.1667 307.667,90.1667 309,87.5C 310.333,90.1667 311.667,90.1667 313,87.5C 314.333,90.1667 315.667,90.1667 317,87.5C 318.333,90.1667 319.667,90.1667 321,87.5C 322.333,90.1667 323.667,90.1667 325,87.5C 326.333,90.1667 327.667,90.1667 329,87.5C 330.333,90.1667 331.667,90.1667 333,87.5C 334.333,90.1667 335.667,90.1667 337,87.5C 338.333,90.1667 339.667,90.1667 341,87.5C 342.333,90.1667 343.667,90.1667 345,87.5C 346.333,90.1667 347.667,90.1667 349,87.5C 350.333,90.1667 351.667,90.1667 353,87.5C 354.333,90.1667 355.667,90.1667 357,87.5C 358.333,90.1667 359.667,90.1667 361,87.5C 362.333,90.1667 363.667,90.1667 365,87.5C 366.333,90.1667 367.667,90.1667 369,87.5C 370.333,90.1667 371.667,90.1667 373,87.5C 374.333,90.1667 375.667,90.1667 377,87.5C 378.333,90.1667 379.667,90.1667 381,87.5C 381.953,89.3731 383.12,89.7065 384.5,88.5 Z"/></g>
<g><path style="opacity:0.997" fill="#601875" d="M 407.5,111.5 C 408.239,111.369 408.906,111.536 409.5,112C 417.911,120.848 426.244,129.681 434.5,138.5C 431.448,138.116 428.615,138.116 426,138.5C 424.667,135.833 423.333,135.833 422,138.5C 420.667,135.833 419.333,135.833 418,138.5C 416.667,135.833 415.333,135.833 414,138.5C 412.667,135.833 411.333,135.833 410,138.5C 408.667,135.833 407.333,135.833 406,138.5C 404.667,135.833 403.333,135.833 402,138.5C 400.667,135.833 399.333,135.833 398,138.5C 396.667,135.833 395.333,135.833 394,138.5C 392.667,135.833 391.333,135.833 390,138.5C 388.667,135.833 387.333,135.833 386,138.5C 384.667,135.833 383.333,135.833 382,138.5C 380.667,135.833 379.333,135.833 378,138.5C 376.667,135.833 375.333,135.833 374,138.5C 372.667,135.833 371.333,135.833 370,138.5C 368.667,135.833 367.333,135.833 366,138.5C 364.667,135.833 363.333,135.833 362,138.5C 360.667,135.833 359.333,135.833 358,138.5C 356.667,135.833 355.333,135.833 354,138.5C 352.667,135.833 351.333,135.833 350,138.5C 348.667,135.833 347.333,135.833 346,138.5C 344.667,135.833 343.333,135.833 342,138.5C 340.667,135.833 339.333,135.833 338,138.5C 336.667,135.833 335.333,135.833 334,138.5C 332.667,135.833 331.333,135.833 330,138.5C 328.667,135.833 327.333,135.833 326,138.5C 324.667,135.833 323.333,135.833 322,138.5C 320.667,135.833 319.333,135.833 318,138.5C 316.667,135.833 315.333,135.833 314,138.5C 312.667,135.833 311.333,135.833 310,138.5C 308.667,135.833 307.333,135.833 306,138.5C 304.667,135.833 303.333,135.833 302,138.5C 300.667,135.833 299.333,135.833 298,138.5C 296.667,135.833 295.333,135.833 294,138.5C 292.667,135.833 291.333,135.833 290,138.5C 288.667,135.833 287.333,135.833 286,138.5C 284.667,135.833 283.333,135.833 282,138.5C 280.667,135.833 279.333,135.833 278,138.5C 276.667,135.833 275.333,135.833 274,138.5C 272.667,135.833 271.333,135.833 270,138.5C 268.667,135.833 267.333,135.833 266,138.5C 264.667,135.833 263.333,135.833 262,138.5C 260.667,135.833 259.333,135.833 258,138.5C 256.667,135.833 255.333,135.833 254,138.5C 252.667,135.833 251.333,135.833 250,138.5C 248.667,135.833 247.333,135.833 246,138.5C 244.667,135.833 243.333,135.833 242,138.5C 240.667,135.833 239.333,135.833 238,138.5C 236.667,135.833 235.333,135.833 234,138.5C 232.667,135.833 231.333,135.833 230,138.5C 228.667,135.833 227.333,135.833 226,138.5C 224.667,135.833 223.333,135.833 222,138.5C 220.667,135.833 219.333,135.833 218,138.5C 216.667,135.833 215.333,135.833 214,138.5C 212.667,135.833 211.333,135.833 210,138.5C 208.667,135.833 207.333,135.833 206,138.5C 204.667,135.833 203.333,135.833 202,138.5C 200.667,135.833 199.333,135.833 198,138.5C 196.667,135.833 195.333,135.833 194,138.5C 192.667,135.833 191.333,135.833 190,138.5C 188.667,135.833 187.333,135.833 186,138.5C 184.667,135.833 183.333,135.833 182,138.5C 180.667,135.833 179.333,135.833 178,138.5C 176.667,135.833 175.333,135.833 174,138.5C 172.667,135.833 171.333,135.833 170,138.5C 168.667,135.833 167.333,135.833 166,138.5C 164.667,135.833 163.333,135.833 162,138.5C 160.667,135.833 159.333,135.833 158,138.5C 156.667,135.833 155.333,135.833 154,138.5C 152.667,135.833 151.333,135.833 150,138.5C 148.667,135.833 147.333,135.833 146,138.5C 144.667,135.833 143.333,135.833 142,138.5C 140.667,135.833 139.333,135.833 138,138.5C 136.667,135.833 135.333,135.833 134,138.5C 132.667,135.833 131.333,135.833 130,138.5C 128.667,135.833 127.333,135.833 126,138.5C 125.333,137.833 124.667,137.167 124,136.5C 122.981,137.687 121.814,138.687 120.5,139.5C 119.808,138.975 119.308,138.308 119,137.5C 118.23,138.598 117.397,138.598 116.5,137.5C 123.398,129.936 130.731,122.602 138.5,115.5C 139.117,115.611 139.617,115.944 140,116.5C 140.293,113.046 141.626,112.712 144,115.5C 143.383,113.905 143.716,112.572 145,111.5C 231,112.833 317,112.833 403,111.5C 404.432,113.931 405.932,113.931 407.5,111.5 Z"/></g>
<g><path style="opacity:0.995" fill="#681d77" d="M 434.5,138.5 C 438.485,140.321 441.319,143.321 443,147.5C 450.418,153.753 457.251,160.42 463.5,167.5C 454.392,166.381 445.558,166.381 437,167.5C 436.333,166.833 435.667,166.167 435,165.5C 430.976,165.183 426.81,165.517 422.5,166.5C 417.502,165.38 412.502,164.213 407.5,163C 402.5,162.667 397.5,162.333 392.5,162C 299.498,161.167 206.498,161.333 113.5,162.5C 112.754,163.736 112.421,165.07 112.5,166.5C 106.611,166.405 100.778,166.071 95,165.5C 93.2657,166.638 91.4324,167.138 89.5,167C 90.1667,166.333 90.8333,165.667 91.5,165C 90.0267,164.29 89.3601,163.124 89.5,161.5C 96.694,157.481 103.194,152.481 109,146.5C 110.121,142.206 112.621,139.206 116.5,137.5C 117.397,138.598 118.23,138.598 119,137.5C 119.308,138.308 119.808,138.975 120.5,139.5C 121.814,138.687 122.981,137.687 124,136.5C 124.667,137.167 125.333,137.833 126,138.5C 127.333,135.833 128.667,135.833 130,138.5C 131.333,135.833 132.667,135.833 134,138.5C 135.333,135.833 136.667,135.833 138,138.5C 139.333,135.833 140.667,135.833 142,138.5C 143.333,135.833 144.667,135.833 146,138.5C 147.333,135.833 148.667,135.833 150,138.5C 151.333,135.833 152.667,135.833 154,138.5C 155.333,135.833 156.667,135.833 158,138.5C 159.333,135.833 160.667,135.833 162,138.5C 163.333,135.833 164.667,135.833 166,138.5C 167.333,135.833 168.667,135.833 170,138.5C 171.333,135.833 172.667,135.833 174,138.5C 175.333,135.833 176.667,135.833 178,138.5C 179.333,135.833 180.667,135.833 182,138.5C 183.333,135.833 184.667,135.833 186,138.5C 187.333,135.833 188.667,135.833 190,138.5C 191.333,135.833 192.667,135.833 194,138.5C 195.333,135.833 196.667,135.833 198,138.5C 199.333,135.833 200.667,135.833 202,138.5C 203.333,135.833 204.667,135.833 206,138.5C 207.333,135.833 208.667,135.833 210,138.5C 211.333,135.833 212.667,135.833 214,138.5C 215.333,135.833 216.667,135.833 218,138.5C 219.333,135.833 220.667,135.833 222,138.5C 223.333,135.833 224.667,135.833 226,138.5C 227.333,135.833 228.667,135.833 230,138.5C 231.333,135.833 232.667,135.833 234,138.5C 235.333,135.833 236.667,135.833 238,138.5C 239.333,135.833 240.667,135.833 242,138.5C 243.333,135.833 244.667,135.833 246,138.5C 247.333,135.833 248.667,135.833 250,138.5C 251.333,135.833 252.667,135.833 254,138.5C 255.333,135.833 256.667,135.833 258,138.5C 259.333,135.833 260.667,135.833 262,138.5C 263.333,135.833 264.667,135.833 266,138.5C 267.333,135.833 268.667,135.833 270,138.5C 271.333,135.833 272.667,135.833 274,138.5C 275.333,135.833 276.667,135.833 278,138.5C 279.333,135.833 280.667,135.833 282,138.5C 283.333,135.833 284.667,135.833 286,138.5C 287.333,135.833 288.667,135.833 290,138.5C 291.333,135.833 292.667,135.833 294,138.5C 295.333,135.833 296.667,135.833 298,138.5C 299.333,135.833 300.667,135.833 302,138.5C 303.333,135.833 304.667,135.833 306,138.5C 307.333,135.833 308.667,135.833 310,138.5C 311.333,135.833 312.667,135.833 314,138.5C 315.333,135.833 316.667,135.833 318,138.5C 319.333,135.833 320.667,135.833 322,138.5C 323.333,135.833 324.667,135.833 326,138.5C 327.333,135.833 328.667,135.833 330,138.5C 331.333,135.833 332.667,135.833 334,138.5C 335.333,135.833 336.667,135.833 338,138.5C 339.333,135.833 340.667,135.833 342,138.5C 343.333,135.833 344.667,135.833 346,138.5C 347.333,135.833 348.667,135.833 350,138.5C 351.333,135.833 352.667,135.833 354,138.5C 355.333,135.833 356.667,135.833 358,138.5C 359.333,135.833 360.667,135.833 362,138.5C 363.333,135.833 364.667,135.833 366,138.5C 367.333,135.833 368.667,135.833 370,138.5C 371.333,135.833 372.667,135.833 374,138.5C 375.333,135.833 376.667,135.833 378,138.5C 379.333,135.833 380.667,135.833 382,138.5C 383.333,135.833 384.667,135.833 386,138.5C 387.333,135.833 388.667,135.833 390,138.5C 391.333,135.833 392.667,135.833 394,138.5C 395.333,135.833 396.667,135.833 398,138.5C 399.333,135.833 400.667,135.833 402,138.5C 403.333,135.833 404.667,135.833 406,138.5C 407.333,135.833 408.667,135.833 410,138.5C 411.333,135.833 412.667,135.833 414,138.5C 415.333,135.833 416.667,135.833 418,138.5C 419.333,135.833 420.667,135.833 422,138.5C 423.333,135.833 424.667,135.833 426,138.5C 428.615,138.116 431.448,138.116 434.5,138.5 Z"/></g>
<g><path style="opacity:1" fill="#fcec9d" d="M 422.5,166.5 C 441.439,173.12 452.439,186.453 455.5,206.5C 456.94,220.863 454.606,234.53 448.5,247.5C 438.871,264.497 424.538,275.497 405.5,280.5C 406.551,284.269 407.884,287.935 409.5,291.5C 412.833,300.167 416.167,308.833 419.5,317.5C 424.971,331.913 430.637,346.246 436.5,360.5C 439.63,369.221 442.964,377.888 446.5,386.5C 419.842,387.5 393.175,387.833 366.5,387.5C 365.276,380.833 363.276,374.499 360.5,368.5C 352.502,342.173 344.502,315.839 336.5,289.5C 334.234,289.141 332.401,289.808 331,291.5C 325.832,316.513 320.665,341.513 315.5,366.5C 313.43,373.237 312.097,380.237 311.5,387.5C 285.498,387.667 259.498,387.5 233.5,387C 234.944,381.61 235.944,376.11 236.5,370.5C 241.482,348.605 246.482,326.605 251.5,304.5C 255.099,285.382 259.099,266.382 263.5,247.5C 267.242,228.457 271.242,209.457 275.5,190.5C 276.404,189.791 276.737,188.791 276.5,187.5C 264.655,187.172 252.988,187.505 241.5,188.5C 237.859,203.98 234.526,219.647 231.5,235.5C 226.724,257.374 222.057,279.374 217.5,301.5C 212.217,323.242 207.55,345.242 203.5,367.5C 201.58,374.101 199.913,380.768 198.5,387.5C 172.811,388.157 147.478,387.491 122.5,385.5C 123.301,380.438 124.301,375.438 125.5,370.5C 127.286,361.116 129.286,351.783 131.5,342.5C 134.836,325.486 138.17,308.486 141.5,291.5C 143.903,284.119 145.57,276.452 146.5,268.5C 148.624,259.884 150.624,251.217 152.5,242.5C 154.5,233.167 156.5,223.833 158.5,214.5C 160.381,206.545 162.048,198.545 163.5,190.5C 164.404,189.791 164.737,188.791 164.5,187.5C 145.833,187.5 127.167,187.5 108.5,187.5C 108.5,186.5 108.5,185.5 108.5,184.5C 109.519,178.426 110.852,172.426 112.5,166.5C 112.421,165.07 112.754,163.736 113.5,162.5C 206.498,161.333 299.498,161.167 392.5,162C 397.5,162.333 402.5,162.667 407.5,163C 412.502,164.213 417.502,165.38 422.5,166.5 Z"/></g>
<g><path style="opacity:1" fill="#d8b794" d="M 108.5,184.5 C 108.5,185.5 108.5,186.5 108.5,187.5C 127.167,187.5 145.833,187.5 164.5,187.5C 164.737,188.791 164.404,189.791 163.5,190.5C 145.197,188.513 126.53,187.846 107.5,188.5C 107.232,186.901 107.566,185.568 108.5,184.5 Z"/></g>
<g><path style="opacity:1" fill="#d9b994" d="M 241.5,188.5 C 252.988,187.505 264.655,187.172 276.5,187.5C 276.737,188.791 276.404,189.791 275.5,190.5C 264.549,188.522 253.216,187.856 241.5,188.5 Z"/></g>
<g><path style="opacity:0.986" fill="#722079" d="M 463.5,167.5 C 467.176,170.669 470.842,173.836 474.5,177C 488.345,190.345 501.679,204.179 514.5,218.5C 513.883,218.611 513.383,218.944 513,219.5C 511.333,217.833 509.667,216.167 508,214.5C 491,214.833 474,215.167 457,215.5C 456.819,212.305 456.319,209.305 455.5,206.5C 452.439,186.453 441.439,173.12 422.5,166.5C 426.81,165.517 430.976,165.183 435,165.5C 435.667,166.167 436.333,166.833 437,167.5C 445.558,166.381 454.392,166.381 463.5,167.5 Z"/></g>
<g><path style="opacity:0.992" fill="#722079" d="M 89.5,161.5 C 89.3601,163.124 90.0267,164.29 91.5,165C 90.8333,165.667 90.1667,166.333 89.5,167C 91.4324,167.138 93.2657,166.638 95,165.5C 100.778,166.071 106.611,166.405 112.5,166.5C 110.852,172.426 109.519,178.426 108.5,184.5C 107.566,185.568 107.232,186.901 107.5,188.5C 126.53,187.846 145.197,188.513 163.5,190.5C 162.048,198.545 160.381,206.545 158.5,214.5C 156.908,213.398 156.075,214.065 156,216.5C 118.333,216.167 80.6667,215.833 43,215.5C 41.1116,217.744 39.6116,217.744 38.5,215.5C 40.9788,210.857 44.6455,207.357 49.5,205C 55.1044,200.07 59.9377,194.57 64,188.5C 73.0982,179.906 81.5982,170.906 89.5,161.5 Z"/></g>
<g><path style="opacity:0.012" fill="#d7bfd7" d="M 47.5,202.5 C 48.8333,203.167 48.8333,203.167 47.5,202.5 Z"/></g>
<g><path style="opacity:0.991" fill="#7b247b" d="M 455.5,206.5 C 456.319,209.305 456.819,212.305 457,215.5C 474,215.167 491,214.833 508,214.5C 509.667,216.167 511.333,217.833 513,219.5C 513.383,218.944 513.883,218.611 514.5,218.5C 515.239,218.369 515.906,218.536 516.5,219C 521.337,224.87 526.504,230.37 532,235.5C 535.934,239.92 538.767,244.92 540.5,250.5C 539.542,250.047 538.708,249.381 538,248.5C 508.333,248.833 478.667,249.167 449,249.5C 448.536,248.906 448.369,248.239 448.5,247.5C 454.606,234.53 456.94,220.863 455.5,206.5 Z"/></g>
<g><path style="opacity:0.99" fill="#79237b" d="M 158.5,214.5 C 156.5,223.833 154.5,233.167 152.5,242.5C 149.386,241.909 146.886,240.242 145,237.5C 144.333,238.833 143.667,238.833 143,237.5C 142,238.5 141,239.5 140,240.5C 139,239.5 138,238.5 137,237.5C 136.333,238.833 135.667,238.833 135,237.5C 134,238.5 133,239.5 132,240.5C 131,239.5 130,238.5 129,237.5C 128.333,238.833 127.667,238.833 127,237.5C 126,238.5 125,239.5 124,240.5C 123,239.5 122,238.5 121,237.5C 120.333,238.833 119.667,238.833 119,237.5C 118,238.5 117,239.5 116,240.5C 115,239.5 114,238.5 113,237.5C 112.333,238.833 111.667,238.833 111,237.5C 110,238.5 109,239.5 108,240.5C 107,239.5 106,238.5 105,237.5C 104.333,238.833 103.667,238.833 103,237.5C 102,238.5 101,239.5 100,240.5C 99,239.5 98,238.5 97,237.5C 96.3333,238.833 95.6667,238.833 95,237.5C 94,238.5 93,239.5 92,240.5C 91,239.5 90,238.5 89,237.5C 88.3333,238.833 87.6667,238.833 87,237.5C 86,238.5 85,239.5 84,240.5C 83,239.5 82,238.5 81,237.5C 80.3333,238.833 79.6667,238.833 79,237.5C 78,238.5 77,239.5 76,240.5C 75,239.5 74,238.5 73,237.5C 72.3333,238.833 71.6667,238.833 71,237.5C 70,238.5 69,239.5 68,240.5C 67,239.5 66,238.5 65,237.5C 64.3333,238.833 63.6667,238.833 63,237.5C 62,238.5 61,239.5 60,240.5C 59,239.5 58,238.5 57,237.5C 56.3333,238.833 55.6667,238.833 55,237.5C 54,238.5 53,239.5 52,240.5C 51,239.5 50,238.5 49,237.5C 48.3333,238.833 47.6667,238.833 47,237.5C 46,238.5 45,239.5 44,240.5C 43,239.5 42,238.5 41,237.5C 40.3333,238.833 39.6667,238.833 39,237.5C 38,238.5 37,239.5 36,240.5C 35,239.5 34,238.5 33,237.5C 32.3333,238.833 31.6667,238.833 31,237.5C 30,238.5 29,239.5 28,240.5C 27,239.5 26,238.5 25,237.5C 24.3333,238.833 23.6667,238.833 23,237.5C 21.8989,239.394 20.5655,240.061 19,239.5C 18.0853,240.328 17.4186,241.328 17,242.5C 16.7216,241.584 16.2216,240.918 15.5,240.5C 18.8352,236.325 22.0019,231.992 25,227.5C 29.6941,223.635 34.1941,219.635 38.5,215.5C 39.6116,217.744 41.1116,217.744 43,215.5C 80.6667,215.833 118.333,216.167 156,216.5C 156.075,214.065 156.908,213.398 158.5,214.5 Z"/></g>
<g><path style="opacity:1" fill="#78247b" d="M 241.5,188.5 C 253.216,187.856 264.549,188.522 275.5,190.5C 271.242,209.457 267.242,228.457 263.5,247.5C 261.692,246.683 260.192,247.35 259,249.5C 257.667,246.833 256.333,246.833 255,249.5C 253.667,246.833 252.333,246.833 251,249.5C 249.667,246.833 248.333,246.833 247,249.5C 245.667,246.833 244.333,246.833 243,249.5C 241.667,246.833 240.333,246.833 239,249.5C 236.515,248.013 234.348,246.179 232.5,244C 234.891,243.309 234.891,242.309 232.5,241C 236.166,240.61 236.332,239.443 233,237.5C 232.667,237.833 232.333,238.167 232,238.5C 231.517,237.552 231.351,236.552 231.5,235.5C 234.526,219.647 237.859,203.98 241.5,188.5 Z"/></g>
<g><path style="opacity:1" fill="#7a257b" d="M 354.5,265.5 C 348.833,265.5 343.167,265.5 337.5,265.5C 337.5,264.5 337.5,263.5 337.5,262.5C 343.246,236.927 348.579,211.26 353.5,185.5C 360.841,185.334 368.174,185.5 375.5,186C 379.843,187.01 383.01,189.51 385,193.5C 388.754,213.319 386.088,232.319 377,250.5C 373.239,256.875 368.072,261.708 361.5,265C 359.19,265.497 356.857,265.663 354.5,265.5 Z"/></g>
<g><path style="opacity:0.008" fill="#debfde" d="M 33.5,216.5 C 34.8333,217.167 34.8333,217.167 33.5,216.5 Z"/></g>
<g><path style="opacity:0.016" fill="#d7bfd7" d="M 33.5,217.5 C 32.8333,218.167 32.8333,218.167 33.5,217.5 Z"/></g>
<g><path style="opacity:0.004" fill="#d9b6d9" d="M 12.5,238.5 C 13.8333,239.167 13.8333,239.167 12.5,238.5 Z"/></g>
<g><path style="opacity:0.997" fill="#80267d" d="M 152.5,242.5 C 150.624,251.217 148.624,259.884 146.5,268.5C 100.617,268.403 54.7837,268.069 9,267.5C 7.1852,268.244 5.35187,268.911 3.5,269.5C 5.33284,262.836 7.16617,256.169 9,249.5C 10.1545,248.257 11.4878,247.257 13,246.5C 13.5662,244.277 14.3995,242.277 15.5,240.5C 16.2216,240.918 16.7216,241.584 17,242.5C 17.4186,241.328 18.0853,240.328 19,239.5C 20.5655,240.061 21.8989,239.394 23,237.5C 23.6667,238.833 24.3333,238.833 25,237.5C 26,238.5 27,239.5 28,240.5C 29,239.5 30,238.5 31,237.5C 31.6667,238.833 32.3333,238.833 33,237.5C 34,238.5 35,239.5 36,240.5C 37,239.5 38,238.5 39,237.5C 39.6667,238.833 40.3333,238.833 41,237.5C 42,238.5 43,239.5 44,240.5C 45,239.5 46,238.5 47,237.5C 47.6667,238.833 48.3333,238.833 49,237.5C 50,238.5 51,239.5 52,240.5C 53,239.5 54,238.5 55,237.5C 55.6667,238.833 56.3333,238.833 57,237.5C 58,238.5 59,239.5 60,240.5C 61,239.5 62,238.5 63,237.5C 63.6667,238.833 64.3333,238.833 65,237.5C 66,238.5 67,239.5 68,240.5C 69,239.5 70,238.5 71,237.5C 71.6667,238.833 72.3333,238.833 73,237.5C 74,238.5 75,239.5 76,240.5C 77,239.5 78,238.5 79,237.5C 79.6667,238.833 80.3333,238.833 81,237.5C 82,238.5 83,239.5 84,240.5C 85,239.5 86,238.5 87,237.5C 87.6667,238.833 88.3333,238.833 89,237.5C 90,238.5 91,239.5 92,240.5C 93,239.5 94,238.5 95,237.5C 95.6667,238.833 96.3333,238.833 97,237.5C 98,238.5 99,239.5 100,240.5C 101,239.5 102,238.5 103,237.5C 103.667,238.833 104.333,238.833 105,237.5C 106,238.5 107,239.5 108,240.5C 109,239.5 110,238.5 111,237.5C 111.667,238.833 112.333,238.833 113,237.5C 114,238.5 115,239.5 116,240.5C 117,239.5 118,238.5 119,237.5C 119.667,238.833 120.333,238.833 121,237.5C 122,238.5 123,239.5 124,240.5C 125,239.5 126,238.5 127,237.5C 127.667,238.833 128.333,238.833 129,237.5C 130,238.5 131,239.5 132,240.5C 133,239.5 134,238.5 135,237.5C 135.667,238.833 136.333,238.833 137,237.5C 138,238.5 139,239.5 140,240.5C 141,239.5 142,238.5 143,237.5C 143.667,238.833 144.333,238.833 145,237.5C 146.886,240.242 149.386,241.909 152.5,242.5 Z"/></g>
<g><path style="opacity:1" fill="#a45d86" d="M 337.5,262.5 C 337.5,263.5 337.5,264.5 337.5,265.5C 343.167,265.5 348.833,265.5 354.5,265.5C 348.69,266.49 342.69,266.823 336.5,266.5C 336.232,264.901 336.566,263.568 337.5,262.5 Z"/></g>
<g><path style="opacity:0.995" fill="#86297e" d="M 146.5,268.5 C 145.57,276.452 143.903,284.119 141.5,291.5C 95.9504,291.405 50.2837,291.738 4.5,292.5C 3.03292,284.848 2.69959,277.182 3.5,269.5C 5.35187,268.911 7.1852,268.244 9,267.5C 54.7837,268.069 100.617,268.403 146.5,268.5 Z"/></g>
<g><path style="opacity:1" fill="#862a7e" d="M 231.5,235.5 C 231.351,236.552 231.517,237.552 232,238.5C 232.333,238.167 232.667,237.833 233,237.5C 236.332,239.443 236.166,240.61 232.5,241C 234.891,242.309 234.891,243.309 232.5,244C 234.348,246.179 236.515,248.013 239,249.5C 240.333,246.833 241.667,246.833 243,249.5C 244.333,246.833 245.667,246.833 247,249.5C 248.333,246.833 249.667,246.833 251,249.5C 252.333,246.833 253.667,246.833 255,249.5C 256.333,246.833 257.667,246.833 259,249.5C 260.192,247.35 261.692,246.683 263.5,247.5C 259.099,266.382 255.099,285.382 251.5,304.5C 250.504,304.586 249.671,304.252 249,303.5C 248.344,307.002 247.011,307.002 245,303.5C 244,304.5 243,305.5 242,306.5C 241.333,305.167 240.667,305.167 240,306.5C 239,305.5 238,304.5 237,303.5C 236,304.5 235,305.5 234,306.5C 233.333,305.167 232.667,305.167 232,306.5C 231,305.5 230,304.5 229,303.5C 228,304.5 227,305.5 226,306.5C 225.333,305.167 224.667,305.167 224,306.5C 222.494,303.526 220.828,303.193 219,305.5C 217.812,304.437 217.312,303.103 217.5,301.5C 222.057,279.374 226.724,257.374 231.5,235.5 Z"/></g>
<g><path style="opacity:1" fill="#85287e" d="M 448.5,247.5 C 448.369,248.239 448.536,248.906 449,249.5C 478.667,249.167 508.333,248.833 538,248.5C 538.708,249.381 539.542,250.047 540.5,250.5C 543.239,255.421 545.072,260.754 546,266.5C 546.736,274.535 546.569,282.535 545.5,290.5C 543.629,290.859 542.129,291.859 541,293.5C 539.667,290.833 538.333,290.833 537,293.5C 535.667,290.833 534.333,290.833 533,293.5C 531.667,290.833 530.333,290.833 529,293.5C 527.667,290.833 526.333,290.833 525,293.5C 523.667,290.833 522.333,290.833 521,293.5C 519.667,290.833 518.333,290.833 517,293.5C 515.667,290.833 514.333,290.833 513,293.5C 511.667,290.833 510.333,290.833 509,293.5C 507.667,290.833 506.333,290.833 505,293.5C 503.667,290.833 502.333,290.833 501,293.5C 499.667,290.833 498.333,290.833 497,293.5C 495.667,290.833 494.333,290.833 493,293.5C 491.667,290.833 490.333,290.833 489,293.5C 487.667,290.833 486.333,290.833 485,293.5C 483.667,290.833 482.333,290.833 481,293.5C 479.667,290.833 478.333,290.833 477,293.5C 475.667,290.833 474.333,290.833 473,293.5C 471.667,290.833 470.333,290.833 469,293.5C 467.667,290.833 466.333,290.833 465,293.5C 463.667,290.833 462.333,290.833 461,293.5C 459.667,290.833 458.333,290.833 457,293.5C 455.667,290.833 454.333,290.833 453,293.5C 451.667,290.833 450.333,290.833 449,293.5C 447.667,290.833 446.333,290.833 445,293.5C 443.667,290.833 442.333,290.833 441,293.5C 439.667,290.833 438.333,290.833 437,293.5C 436.333,292.833 435.667,292.167 435,291.5C 426.668,292.165 418.168,292.165 409.5,291.5C 407.884,287.935 406.551,284.269 405.5,280.5C 424.538,275.497 438.871,264.497 448.5,247.5 Z"/></g>
<g><path style="opacity:0.004" fill="#fdfefd" d="M 0.5,270.5 C 1.83333,271.167 1.83333,271.167 0.5,270.5 Z"/></g>
<g><path style="opacity:1" fill="#8d2c80" d="M 545.5,290.5 C 543.465,300.992 538.798,309.992 531.5,317.5C 494.285,316.596 456.952,316.596 419.5,317.5C 416.167,308.833 412.833,300.167 409.5,291.5C 418.168,292.165 426.668,292.165 435,291.5C 435.667,292.167 436.333,292.833 437,293.5C 438.333,290.833 439.667,290.833 441,293.5C 442.333,290.833 443.667,290.833 445,293.5C 446.333,290.833 447.667,290.833 449,293.5C 450.333,290.833 451.667,290.833 453,293.5C 454.333,290.833 455.667,290.833 457,293.5C 458.333,290.833 459.667,290.833 461,293.5C 462.333,290.833 463.667,290.833 465,293.5C 466.333,290.833 467.667,290.833 469,293.5C 470.333,290.833 471.667,290.833 473,293.5C 474.333,290.833 475.667,290.833 477,293.5C 478.333,290.833 479.667,290.833 481,293.5C 482.333,290.833 483.667,290.833 485,293.5C 486.333,290.833 487.667,290.833 489,293.5C 490.333,290.833 491.667,290.833 493,293.5C 494.333,290.833 495.667,290.833 497,293.5C 498.333,290.833 499.667,290.833 501,293.5C 502.333,290.833 503.667,290.833 505,293.5C 506.333,290.833 507.667,290.833 509,293.5C 510.333,290.833 511.667,290.833 513,293.5C 514.333,290.833 515.667,290.833 517,293.5C 518.333,290.833 519.667,290.833 521,293.5C 522.333,290.833 523.667,290.833 525,293.5C 526.333,290.833 527.667,290.833 529,293.5C 530.333,290.833 531.667,290.833 533,293.5C 534.333,290.833 535.667,290.833 537,293.5C 538.333,290.833 539.667,290.833 541,293.5C 542.129,291.859 543.629,290.859 545.5,290.5 Z"/></g>
<g><path style="opacity:1" fill="#942f82" d="M 531.5,317.5 C 531.013,318.473 530.513,319.473 530,320.5C 515.967,333.367 502.467,346.7 489.5,360.5C 485.397,359.769 481.897,360.769 479,363.5C 478.333,362.167 477.667,362.167 477,363.5C 476,362.5 475,361.5 474,360.5C 473,361.5 472,362.5 471,363.5C 470.333,362.167 469.667,362.167 469,363.5C 468,362.5 467,361.5 466,360.5C 465,361.5 464,362.5 463,363.5C 462.333,362.167 461.667,362.167 461,363.5C 460,362.5 459,361.5 458,360.5C 457,361.5 456,362.5 455,363.5C 454.333,362.167 453.667,362.167 453,363.5C 452,362.5 451,361.5 450,360.5C 449,361.5 448,362.5 447,363.5C 445.243,363.867 443.743,363.034 442.5,361C 440.527,360.505 438.527,360.338 436.5,360.5C 430.637,346.246 424.971,331.913 419.5,317.5C 456.952,316.596 494.285,316.596 531.5,317.5 Z"/></g>
<g><path style="opacity:0.998" fill="#902d81" d="M 141.5,291.5 C 138.17,308.486 134.836,325.486 131.5,342.5C 129.983,342.489 128.816,341.823 128,340.5C 126.667,343.167 125.333,343.167 124,340.5C 122.667,343.167 121.333,343.167 120,340.5C 118.667,343.167 117.333,343.167 116,340.5C 114.667,343.167 113.333,343.167 112,340.5C 110.667,343.167 109.333,343.167 108,340.5C 106.667,343.167 105.333,343.167 104,340.5C 102.667,343.167 101.333,343.167 100,340.5C 98.6667,343.167 97.3333,343.167 96,340.5C 94.6667,343.167 93.3333,343.167 92,340.5C 90.6667,343.167 89.3333,343.167 88,340.5C 86.6667,343.167 85.3333,343.167 84,340.5C 82.6667,343.167 81.3333,343.167 80,340.5C 78.6667,343.167 77.3333,343.167 76,340.5C 74.6667,343.167 73.3333,343.167 72,340.5C 70.6667,343.167 69.3333,343.167 68,340.5C 66.6667,343.167 65.3333,343.167 64,340.5C 62.6667,343.167 61.3333,343.167 60,340.5C 58.6667,343.167 57.3333,343.167 56,340.5C 54.6667,343.167 53.3333,343.167 52,340.5C 50.6667,343.167 49.3333,343.167 48,340.5C 47.0331,341.678 46.5331,343.011 46.5,344.5C 45.5224,344.023 44.6891,343.357 44,342.5C 43.6012,342.728 43.4346,343.062 43.5,343.5C 30.4351,331.937 18.6017,319.27 8,305.5C 6.31578,301.284 5.14911,296.951 4.5,292.5C 50.2837,291.738 95.9504,291.405 141.5,291.5 Z"/></g>
<g><path style="opacity:1" fill="#963182" d="M 217.5,301.5 C 217.312,303.103 217.812,304.437 219,305.5C 220.828,303.193 222.494,303.526 224,306.5C 224.667,305.167 225.333,305.167 226,306.5C 227,305.5 228,304.5 229,303.5C 230,304.5 231,305.5 232,306.5C 232.667,305.167 233.333,305.167 234,306.5C 235,305.5 236,304.5 237,303.5C 238,304.5 239,305.5 240,306.5C 240.667,305.167 241.333,305.167 242,306.5C 243,305.5 244,304.5 245,303.5C 247.011,307.002 248.344,307.002 249,303.5C 249.671,304.252 250.504,304.586 251.5,304.5C 246.482,326.605 241.482,348.605 236.5,370.5C 225.618,370.264 214.785,370.264 204,370.5C 203.517,369.552 203.351,368.552 203.5,367.5C 207.55,345.242 212.217,323.242 217.5,301.5 Z"/></g>
<g><path style="opacity:1" fill="#973283" d="M 360.5,368.5 C 360.631,369.239 360.464,369.906 360,370.5C 345.333,370.5 330.667,370.5 316,370.5C 315.51,369.207 315.343,367.873 315.5,366.5C 320.665,341.513 325.832,316.513 331,291.5C 332.401,289.808 334.234,289.141 336.5,289.5C 344.502,315.839 352.502,342.173 360.5,368.5 Z"/></g>
<g><path style="opacity:0.999" fill="#993183" d="M 131.5,342.5 C 129.286,351.783 127.286,361.116 125.5,370.5C 109.173,369.505 93.0059,369.172 77,369.5C 75.2111,371.229 73.0444,371.896 70.5,371.5C 62.0149,363.243 53.5149,354.91 45,346.5C 44.4867,345.473 43.9867,344.473 43.5,343.5C 43.4346,343.062 43.6012,342.728 44,342.5C 44.6891,343.357 45.5224,344.023 46.5,344.5C 46.5331,343.011 47.0331,341.678 48,340.5C 49.3333,343.167 50.6667,343.167 52,340.5C 53.3333,343.167 54.6667,343.167 56,340.5C 57.3333,343.167 58.6667,343.167 60,340.5C 61.3333,343.167 62.6667,343.167 64,340.5C 65.3333,343.167 66.6667,343.167 68,340.5C 69.3333,343.167 70.6667,343.167 72,340.5C 73.3333,343.167 74.6667,343.167 76,340.5C 77.3333,343.167 78.6667,343.167 80,340.5C 81.3333,343.167 82.6667,343.167 84,340.5C 85.3333,343.167 86.6667,343.167 88,340.5C 89.3333,343.167 90.6667,343.167 92,340.5C 93.3333,343.167 94.6667,343.167 96,340.5C 97.3333,343.167 98.6667,343.167 100,340.5C 101.333,343.167 102.667,343.167 104,340.5C 105.333,343.167 106.667,343.167 108,340.5C 109.333,343.167 110.667,343.167 112,340.5C 113.333,343.167 114.667,343.167 116,340.5C 117.333,343.167 118.667,343.167 120,340.5C 121.333,343.167 122.667,343.167 124,340.5C 125.333,343.167 126.667,343.167 128,340.5C 128.816,341.823 129.983,342.489 131.5,342.5 Z"/></g>
<g><path style="opacity:0.999" fill="#a13785" d="M 436.5,360.5 C 438.527,360.338 440.527,360.505 442.5,361C 443.743,363.034 445.243,363.867 447,363.5C 448,362.5 449,361.5 450,360.5C 451,361.5 452,362.5 453,363.5C 453.667,362.167 454.333,362.167 455,363.5C 456,362.5 457,361.5 458,360.5C 459,361.5 460,362.5 461,363.5C 461.667,362.167 462.333,362.167 463,363.5C 464,362.5 465,361.5 466,360.5C 467,361.5 468,362.5 469,363.5C 469.667,362.167 470.333,362.167 471,363.5C 472,362.5 473,361.5 474,360.5C 475,361.5 476,362.5 477,363.5C 477.667,362.167 478.333,362.167 479,363.5C 481.897,360.769 485.397,359.769 489.5,360.5C 478.554,372.113 467.221,383.446 455.5,394.5C 454.504,394.586 453.671,394.252 453,393.5C 452.333,394.167 451.667,394.833 451,395.5C 446.333,394.167 441.667,394.167 437,395.5C 435.667,392.833 434.333,392.833 433,395.5C 431.667,392.833 430.333,392.833 429,395.5C 427.667,392.833 426.333,392.833 425,395.5C 423.667,392.833 422.333,392.833 421,395.5C 419.667,392.833 418.333,392.833 417,395.5C 415.667,392.833 414.333,392.833 413,395.5C 411.667,392.833 410.333,392.833 409,395.5C 407.667,392.833 406.333,392.833 405,395.5C 403.667,392.833 402.333,392.833 401,395.5C 399.667,392.833 398.333,392.833 397,395.5C 395.667,392.833 394.333,392.833 393,395.5C 391.667,392.833 390.333,392.833 389,395.5C 387.667,392.833 386.333,392.833 385,395.5C 383.667,392.833 382.333,392.833 381,395.5C 379.667,392.833 378.333,392.833 377,395.5C 375.667,392.833 374.333,392.833 373,395.5C 371.667,392.833 370.333,392.833 369,395.5C 367.667,392.833 366.333,392.833 365,395.5C 363.667,392.833 362.333,392.833 361,395.5C 359.667,392.833 358.333,392.833 357,395.5C 355.667,392.833 354.333,392.833 353,395.5C 351.667,392.833 350.333,392.833 349,395.5C 347.667,392.833 346.333,392.833 345,395.5C 343.667,392.833 342.333,392.833 341,395.5C 339.667,392.833 338.333,392.833 337,395.5C 335.667,392.833 334.333,392.833 333,395.5C 331.667,392.833 330.333,392.833 329,395.5C 327.667,392.833 326.333,392.833 325,395.5C 323.667,392.833 322.333,392.833 321,395.5C 319.667,392.833 318.333,392.833 317,395.5C 315.667,392.833 314.333,392.833 313,395.5C 311.667,392.833 310.333,392.833 309,395.5C 307.667,392.833 306.333,392.833 305,395.5C 303.667,392.833 302.333,392.833 301,395.5C 299.667,392.833 298.333,392.833 297,395.5C 295.667,392.833 294.333,392.833 293,395.5C 291.667,392.833 290.333,392.833 289,395.5C 287.667,392.833 286.333,392.833 285,395.5C 283.667,392.833 282.333,392.833 281,395.5C 279.667,392.833 278.333,392.833 277,395.5C 275.667,392.833 274.333,392.833 273,395.5C 271.667,392.833 270.333,392.833 269,395.5C 267.667,392.833 266.333,392.833 265,395.5C 263.667,392.833 262.333,392.833 261,395.5C 259.667,392.833 258.333,392.833 257,395.5C 255.667,392.833 254.333,392.833 253,395.5C 251.667,392.833 250.333,392.833 249,395.5C 247.667,392.833 246.333,392.833 245,395.5C 243.667,392.833 242.333,392.833 241,395.5C 239.667,392.833 238.333,392.833 237,395.5C 235.667,392.833 234.333,392.833 233,395.5C 231.667,392.833 230.333,392.833 229,395.5C 227.667,392.833 226.333,392.833 225,395.5C 223.667,392.833 222.333,392.833 221,395.5C 219.667,392.833 218.333,392.833 217,395.5C 215.667,392.833 214.333,392.833 213,395.5C 211.667,392.833 210.333,392.833 209,395.5C 207.667,392.833 206.333,392.833 205,395.5C 203.667,392.833 202.333,392.833 201,395.5C 199.667,392.833 198.333,392.833 197,395.5C 195.667,392.833 194.333,392.833 193,395.5C 191.667,392.833 190.333,392.833 189,395.5C 187.667,392.833 186.333,392.833 185,395.5C 183.667,392.833 182.333,392.833 181,395.5C 179.667,392.833 178.333,392.833 177,395.5C 175.667,392.833 174.333,392.833 173,395.5C 171.667,392.833 170.333,392.833 169,395.5C 167.667,392.833 166.333,392.833 165,395.5C 163.667,392.833 162.333,392.833 161,395.5C 159.667,392.833 158.333,392.833 157,395.5C 155.667,392.833 154.333,392.833 153,395.5C 151.667,392.833 150.333,392.833 149,395.5C 147.667,392.833 146.333,392.833 145,395.5C 143.667,392.833 142.333,392.833 141,395.5C 139.667,392.833 138.333,392.833 137,395.5C 135.667,392.833 134.333,392.833 133,395.5C 131.667,392.833 130.333,392.833 129,395.5C 127.667,392.833 126.333,392.833 125,395.5C 123.667,392.833 122.333,392.833 121,395.5C 119.667,392.833 118.333,392.833 117,395.5C 115.667,392.833 114.333,392.833 113,395.5C 111.667,392.833 110.333,392.833 109,395.5C 107.667,392.833 106.333,392.833 105,395.5C 104.333,394.833 103.667,394.167 103,393.5C 100.635,394.382 98.8017,395.715 97.5,397.5C 89.799,391.966 83.299,385.299 78,377.5C 75.1563,375.841 72.6563,373.841 70.5,371.5C 73.0444,371.896 75.2111,371.229 77,369.5C 93.0059,369.172 109.173,369.505 125.5,370.5C 124.301,375.438 123.301,380.438 122.5,385.5C 121.596,386.209 121.263,387.209 121.5,388.5C 147.339,388.831 173.005,388.498 198.5,387.5C 199.913,380.768 201.58,374.101 203.5,367.5C 203.351,368.552 203.517,369.552 204,370.5C 214.785,370.264 225.618,370.264 236.5,370.5C 235.944,376.11 234.944,381.61 233.5,387C 259.498,387.5 285.498,387.667 311.5,387.5C 312.097,380.237 313.43,373.237 315.5,366.5C 315.343,367.873 315.51,369.207 316,370.5C 330.667,370.5 345.333,370.5 360,370.5C 360.464,369.906 360.631,369.239 360.5,368.5C 363.276,374.499 365.276,380.833 366.5,387.5C 393.175,387.833 419.842,387.5 446.5,386.5C 442.964,377.888 439.63,369.221 436.5,360.5 Z"/></g>
<g><path style="opacity:1" fill="#ce9091" d="M 122.5,385.5 C 147.478,387.491 172.811,388.157 198.5,387.5C 173.005,388.498 147.339,388.831 121.5,388.5C 121.263,387.209 121.596,386.209 122.5,385.5 Z"/></g>
<g><path style="opacity:0.999" fill="#a53686" d="M 455.5,394.5 C 447.167,403.5 438.5,412.167 429.5,420.5C 427.408,420.439 425.908,419.439 425,417.5C 324.333,418.833 223.667,418.833 123,417.5C 121,418.5 121,419.5 123,420.5C 124,420.167 125,419.833 126,419.5C 128,420.5 128,421.5 126,422.5C 124.612,422.786 123.112,422.452 121.5,421.5C 117.48,418.642 114.314,414.975 112,410.5C 106.648,406.643 101.815,402.31 97.5,397.5C 98.8017,395.715 100.635,394.382 103,393.5C 103.667,394.167 104.333,394.833 105,395.5C 106.333,392.833 107.667,392.833 109,395.5C 110.333,392.833 111.667,392.833 113,395.5C 114.333,392.833 115.667,392.833 117,395.5C 118.333,392.833 119.667,392.833 121,395.5C 122.333,392.833 123.667,392.833 125,395.5C 126.333,392.833 127.667,392.833 129,395.5C 130.333,392.833 131.667,392.833 133,395.5C 134.333,392.833 135.667,392.833 137,395.5C 138.333,392.833 139.667,392.833 141,395.5C 142.333,392.833 143.667,392.833 145,395.5C 146.333,392.833 147.667,392.833 149,395.5C 150.333,392.833 151.667,392.833 153,395.5C 154.333,392.833 155.667,392.833 157,395.5C 158.333,392.833 159.667,392.833 161,395.5C 162.333,392.833 163.667,392.833 165,395.5C 166.333,392.833 167.667,392.833 169,395.5C 170.333,392.833 171.667,392.833 173,395.5C 174.333,392.833 175.667,392.833 177,395.5C 178.333,392.833 179.667,392.833 181,395.5C 182.333,392.833 183.667,392.833 185,395.5C 186.333,392.833 187.667,392.833 189,395.5C 190.333,392.833 191.667,392.833 193,395.5C 194.333,392.833 195.667,392.833 197,395.5C 198.333,392.833 199.667,392.833 201,395.5C 202.333,392.833 203.667,392.833 205,395.5C 206.333,392.833 207.667,392.833 209,395.5C 210.333,392.833 211.667,392.833 213,395.5C 214.333,392.833 215.667,392.833 217,395.5C 218.333,392.833 219.667,392.833 221,395.5C 222.333,392.833 223.667,392.833 225,395.5C 226.333,392.833 227.667,392.833 229,395.5C 230.333,392.833 231.667,392.833 233,395.5C 234.333,392.833 235.667,392.833 237,395.5C 238.333,392.833 239.667,392.833 241,395.5C 242.333,392.833 243.667,392.833 245,395.5C 246.333,392.833 247.667,392.833 249,395.5C 250.333,392.833 251.667,392.833 253,395.5C 254.333,392.833 255.667,392.833 257,395.5C 258.333,392.833 259.667,392.833 261,395.5C 262.333,392.833 263.667,392.833 265,395.5C 266.333,392.833 267.667,392.833 269,395.5C 270.333,392.833 271.667,392.833 273,395.5C 274.333,392.833 275.667,392.833 277,395.5C 278.333,392.833 279.667,392.833 281,395.5C 282.333,392.833 283.667,392.833 285,395.5C 286.333,392.833 287.667,392.833 289,395.5C 290.333,392.833 291.667,392.833 293,395.5C 294.333,392.833 295.667,392.833 297,395.5C 298.333,392.833 299.667,392.833 301,395.5C 302.333,392.833 303.667,392.833 305,395.5C 306.333,392.833 307.667,392.833 309,395.5C 310.333,392.833 311.667,392.833 313,395.5C 314.333,392.833 315.667,392.833 317,395.5C 318.333,392.833 319.667,392.833 321,395.5C 322.333,392.833 323.667,392.833 325,395.5C 326.333,392.833 327.667,392.833 329,395.5C 330.333,392.833 331.667,392.833 333,395.5C 334.333,392.833 335.667,392.833 337,395.5C 338.333,392.833 339.667,392.833 341,395.5C 342.333,392.833 343.667,392.833 345,395.5C 346.333,392.833 347.667,392.833 349,395.5C 350.333,392.833 351.667,392.833 353,395.5C 354.333,392.833 355.667,392.833 357,395.5C 358.333,392.833 359.667,392.833 361,395.5C 362.333,392.833 363.667,392.833 365,395.5C 366.333,392.833 367.667,392.833 369,395.5C 370.333,392.833 371.667,392.833 373,395.5C 374.333,392.833 375.667,392.833 377,395.5C 378.333,392.833 379.667,392.833 381,395.5C 382.333,392.833 383.667,392.833 385,395.5C 386.333,392.833 387.667,392.833 389,395.5C 390.333,392.833 391.667,392.833 393,395.5C 394.333,392.833 395.667,392.833 397,395.5C 398.333,392.833 399.667,392.833 401,395.5C 402.333,392.833 403.667,392.833 405,395.5C 406.333,392.833 407.667,392.833 409,395.5C 410.333,392.833 411.667,392.833 413,395.5C 414.333,392.833 415.667,392.833 417,395.5C 418.333,392.833 419.667,392.833 421,395.5C 422.333,392.833 423.667,392.833 425,395.5C 426.333,392.833 427.667,392.833 429,395.5C 430.333,392.833 431.667,392.833 433,395.5C 434.333,392.833 435.667,392.833 437,395.5C 441.667,394.167 446.333,394.167 451,395.5C 451.667,394.833 452.333,394.167 453,393.5C 453.671,394.252 454.504,394.586 455.5,394.5 Z"/></g>
<g><path style="opacity:0.999" fill="#ab3988" d="M 429.5,420.5 C 422.113,428.554 414.446,436.221 406.5,443.5C 404.109,443.849 401.942,443.516 400,442.5C 398.667,445.167 397.333,445.167 396,442.5C 394.667,445.167 393.333,445.167 392,442.5C 390.667,445.167 389.333,445.167 388,442.5C 386.667,445.167 385.333,445.167 384,442.5C 382.667,445.167 381.333,445.167 380,442.5C 378.667,445.167 377.333,445.167 376,442.5C 374.667,445.167 373.333,445.167 372,442.5C 370.667,445.167 369.333,445.167 368,442.5C 366.667,445.167 365.333,445.167 364,442.5C 362.667,445.167 361.333,445.167 360,442.5C 358.667,445.167 357.333,445.167 356,442.5C 354.667,445.167 353.333,445.167 352,442.5C 350.667,445.167 349.333,445.167 348,442.5C 346.667,445.167 345.333,445.167 344,442.5C 342.667,445.167 341.333,445.167 340,442.5C 338.667,445.167 337.333,445.167 336,442.5C 334.667,445.167 333.333,445.167 332,442.5C 330.667,445.167 329.333,445.167 328,442.5C 326.667,445.167 325.333,445.167 324,442.5C 322.667,445.167 321.333,445.167 320,442.5C 318.667,445.167 317.333,445.167 316,442.5C 314.667,445.167 313.333,445.167 312,442.5C 310.667,445.167 309.333,445.167 308,442.5C 306.667,445.167 305.333,445.167 304,442.5C 302.667,445.167 301.333,445.167 300,442.5C 298.667,445.167 297.333,445.167 296,442.5C 294.667,445.167 293.333,445.167 292,442.5C 290.667,445.167 289.333,445.167 288,442.5C 286.667,445.167 285.333,445.167 284,442.5C 282.667,445.167 281.333,445.167 280,442.5C 278.667,445.167 277.333,445.167 276,442.5C 274.667,445.167 273.333,445.167 272,442.5C 270.667,445.167 269.333,445.167 268,442.5C 266.667,445.167 265.333,445.167 264,442.5C 262.667,445.167 261.333,445.167 260,442.5C 258.667,445.167 257.333,445.167 256,442.5C 254.667,445.167 253.333,445.167 252,442.5C 250.667,445.167 249.333,445.167 248,442.5C 246.667,445.167 245.333,445.167 244,442.5C 242.667,445.167 241.333,445.167 240,442.5C 238.667,445.167 237.333,445.167 236,442.5C 234.667,445.167 233.333,445.167 232,442.5C 230.667,445.167 229.333,445.167 228,442.5C 226.667,445.167 225.333,445.167 224,442.5C 222.667,445.167 221.333,445.167 220,442.5C 218.667,445.167 217.333,445.167 216,442.5C 214.667,445.167 213.333,445.167 212,442.5C 210.667,445.167 209.333,445.167 208,442.5C 206.667,445.167 205.333,445.167 204,442.5C 202.667,445.167 201.333,445.167 200,442.5C 198.667,445.167 197.333,445.167 196,442.5C 194.667,445.167 193.333,445.167 192,442.5C 190.667,445.167 189.333,445.167 188,442.5C 186.667,445.167 185.333,445.167 184,442.5C 182.667,445.167 181.333,445.167 180,442.5C 178.667,445.167 177.333,445.167 176,442.5C 174.667,445.167 173.333,445.167 172,442.5C 170.667,445.167 169.333,445.167 168,442.5C 166.667,445.167 165.333,445.167 164,442.5C 162.667,445.167 161.333,445.167 160,442.5C 158.667,445.167 157.333,445.167 156,442.5C 154.667,445.167 153.333,445.167 152,442.5C 150.667,445.167 149.333,445.167 148,442.5C 146.667,442.5 145.333,442.5 144,442.5C 143.536,443.094 143.369,443.761 143.5,444.5C 136.397,436.642 129.064,428.975 121.5,421.5C 123.112,422.452 124.612,422.786 126,422.5C 128,421.5 128,420.5 126,419.5C 125,419.833 124,420.167 123,420.5C 121,419.5 121,418.5 123,417.5C 223.667,418.833 324.333,418.833 425,417.5C 425.908,419.439 427.408,420.439 429.5,420.5 Z"/></g>
<g><path style="opacity:0.999" fill="#b23b89" d="M 406.5,443.5 C 396.473,453.194 386.473,462.861 376.5,472.5C 375.542,472.047 374.708,471.381 374,470.5C 309.333,471.833 244.667,471.833 180,470.5C 178.429,472.923 176.263,474.256 173.5,474.5C 169.451,471.616 166.284,467.949 164,463.5C 161.5,461.667 159,459.833 156.5,458C 152.636,452.971 148.303,448.471 143.5,444.5C 143.369,443.761 143.536,443.094 144,442.5C 145.333,442.5 146.667,442.5 148,442.5C 149.333,445.167 150.667,445.167 152,442.5C 153.333,445.167 154.667,445.167 156,442.5C 157.333,445.167 158.667,445.167 160,442.5C 161.333,445.167 162.667,445.167 164,442.5C 165.333,445.167 166.667,445.167 168,442.5C 169.333,445.167 170.667,445.167 172,442.5C 173.333,445.167 174.667,445.167 176,442.5C 177.333,445.167 178.667,445.167 180,442.5C 181.333,445.167 182.667,445.167 184,442.5C 185.333,445.167 186.667,445.167 188,442.5C 189.333,445.167 190.667,445.167 192,442.5C 193.333,445.167 194.667,445.167 196,442.5C 197.333,445.167 198.667,445.167 200,442.5C 201.333,445.167 202.667,445.167 204,442.5C 205.333,445.167 206.667,445.167 208,442.5C 209.333,445.167 210.667,445.167 212,442.5C 213.333,445.167 214.667,445.167 216,442.5C 217.333,445.167 218.667,445.167 220,442.5C 221.333,445.167 222.667,445.167 224,442.5C 225.333,445.167 226.667,445.167 228,442.5C 229.333,445.167 230.667,445.167 232,442.5C 233.333,445.167 234.667,445.167 236,442.5C 237.333,445.167 238.667,445.167 240,442.5C 241.333,445.167 242.667,445.167 244,442.5C 245.333,445.167 246.667,445.167 248,442.5C 249.333,445.167 250.667,445.167 252,442.5C 253.333,445.167 254.667,445.167 256,442.5C 257.333,445.167 258.667,445.167 260,442.5C 261.333,445.167 262.667,445.167 264,442.5C 265.333,445.167 266.667,445.167 268,442.5C 269.333,445.167 270.667,445.167 272,442.5C 273.333,445.167 274.667,445.167 276,442.5C 277.333,445.167 278.667,445.167 280,442.5C 281.333,445.167 282.667,445.167 284,442.5C 285.333,445.167 286.667,445.167 288,442.5C 289.333,445.167 290.667,445.167 292,442.5C 293.333,445.167 294.667,445.167 296,442.5C 297.333,445.167 298.667,445.167 300,442.5C 301.333,445.167 302.667,445.167 304,442.5C 305.333,445.167 306.667,445.167 308,442.5C 309.333,445.167 310.667,445.167 312,442.5C 313.333,445.167 314.667,445.167 316,442.5C 317.333,445.167 318.667,445.167 320,442.5C 321.333,445.167 322.667,445.167 324,442.5C 325.333,445.167 326.667,445.167 328,442.5C 329.333,445.167 330.667,445.167 332,442.5C 333.333,445.167 334.667,445.167 336,442.5C 337.333,445.167 338.667,445.167 340,442.5C 341.333,445.167 342.667,445.167 344,442.5C 345.333,445.167 346.667,445.167 348,442.5C 349.333,445.167 350.667,445.167 352,442.5C 353.333,445.167 354.667,445.167 356,442.5C 357.333,445.167 358.667,445.167 360,442.5C 361.333,445.167 362.667,445.167 364,442.5C 365.333,445.167 366.667,445.167 368,442.5C 369.333,445.167 370.667,445.167 372,442.5C 373.333,445.167 374.667,445.167 376,442.5C 377.333,445.167 378.667,445.167 380,442.5C 381.333,445.167 382.667,445.167 384,442.5C 385.333,445.167 386.667,445.167 388,442.5C 389.333,445.167 390.667,445.167 392,442.5C 393.333,445.167 394.667,445.167 396,442.5C 397.333,445.167 398.667,445.167 400,442.5C 401.942,443.516 404.109,443.849 406.5,443.5 Z"/></g>
<g><path style="opacity:0.999" fill="#ba3f8b" d="M 376.5,472.5 C 359.779,488.554 343.446,504.887 327.5,521.5C 292.285,521.071 256.952,521.071 221.5,521.5C 214.556,514.728 207.39,508.061 200,501.5C 199.667,500.5 199.333,499.5 199,498.5C 189.646,491.31 181.146,483.31 173.5,474.5C 176.263,474.256 178.429,472.923 180,470.5C 244.667,471.833 309.333,471.833 374,470.5C 374.708,471.381 375.542,472.047 376.5,472.5 Z"/></g>
<g><path style="opacity:0.996" fill="#c4438e" d="M 327.5,521.5 C 303.749,549.396 275.082,555.563 241.5,540C 233.382,535.382 226.716,529.215 221.5,521.5C 256.952,521.071 292.285,521.071 327.5,521.5 Z"/></g>
</svg>
