<?xml version="1.0" encoding="UTF-8" standalone="no"?>
<svg
   xmlns:dc="http://purl.org/dc/elements/1.1/"
   xmlns:cc="http://creativecommons.org/ns#"
   xmlns:rdf="http://www.w3.org/1999/02/22-rdf-syntax-ns#"
   xmlns:svg="http://www.w3.org/2000/svg"
   xmlns="http://www.w3.org/2000/svg"
   xmlns:sodipodi="http://sodipodi.sourceforge.net/DTD/sodipodi-0.dtd"
   xmlns:inkscape="http://www.inkscape.org/namespaces/inkscape"
   class="o-icon o-icon--logo"
   preserveAspectRatio="xMidYMid meet"
   viewBox="0 0 999.99998 287.95379"
   version="1.1"
   id="svg4575"
   sodipodi:docname="A.svg"
   width="1000"
   height="287.9538"
   inkscape:version="0.92.4 (5da689c313, 2019-01-14)">
  <metadata
     id="metadata4581">
    <rdf:RDF>
      <cc:Work
         rdf:about="">
        <dc:format>image/svg+xml</dc:format>
        <dc:type
           rdf:resource="http://purl.org/dc/dcmitype/StillImage" />
        <dc:title></dc:title>
      </cc:Work>
    </rdf:RDF>
  </metadata>
  <defs
     id="defs4579">
    <clipPath
       clipPathUnits="userSpaceOnUse"
       id="clipPath4959">
      <path
         d="M 288.661,0 H 409.606 V 90.708 H 288.661 Z"
         id="path4957"
         inkscape:connector-curvature="0" />
    </clipPath>
    <clipPath
       clipPathUnits="userSpaceOnUse"
       id="clipPath4947">
      <path
         d="m 304.78,27.566 h 88.707 V 63.142 H 304.78 Z"
         id="path4945"
         inkscape:connector-curvature="0" />
    </clipPath>
    <clipPath
       clipPathUnits="userSpaceOnUse"
       id="clipPath4927">
      <path
         d="m 304.78,27.566 h 88.707 V 63.142 H 304.78 Z"
         id="path4925"
         inkscape:connector-curvature="0" />
    </clipPath>
  </defs>
  <sodipodi:namedview
     pagecolor="#ffffff"
     bordercolor="#111111"
     borderopacity="1"
     objecttolerance="10"
     gridtolerance="10"
     guidetolerance="10"
     inkscape:pageopacity="0"
     inkscape:pageshadow="2"
     inkscape:window-width="1920"
     inkscape:window-height="1017"
     id="namedview4577"
     showgrid="false"
     fit-margin-top="0"
     fit-margin-left="0"
     fit-margin-right="0"
     fit-margin-bottom="0"
     inkscape:zoom="0.54180909"
     inkscape:cx="702.21525"
     inkscape:cy="286.2971"
     inkscape:window-x="1912"
     inkscape:window-y="-8"
     inkscape:window-maximized="1"
     inkscape:current-layer="svg4575" />
  <style
     id="style4856">.Higgle-logo_svg__st0{fill:#6639e4}</style>
  <path
     id="path5411"
     d="m 255.86511,109.77711 c 0,0 27.02206,-22.79987 59.95519,-22.79987 v 43.91085 c -64.17739,-0.84444 -59.95519,50.66636 -59.95519,50.66636 V 282.88716 H 216.17646 V 90.355 h 39.68865 z M 488.93036,90.355 h 38.84421 v 107.24379 c 0,48.97748 -38.84421,90.35501 -87.82169,90.35501 -48.97748,0 -87.82169,-41.37753 -87.82169,-90.35501 V 90.355 h 38.84421 v 107.24379 c 0,27.02206 21.95542,49.82192 48.97748,49.82192 27.02206,0 48.97748,-22.79986 48.97748,-49.82192 z m 77.68842,192.53216 V 90.355 h 39.68864 V 283.7316 H 566.61878 Z M 98.7994,125.82145 c -32.93313,0 -59.95519,27.02206 -59.95519,59.95519 0,32.93314 27.02206,59.95519 59.95519,59.95519 20.26654,0 37.99977,-10.13327 49.82192,-26.17761 l 31.24425,23.6443 C 160.44347,269.37614 130.88809,285.42048 98.7994,285.42048 43.91084,286.26492 0,241.50964 0,185.77664 0,130.04365 44.75528,86.13281 98.7994,86.13281 c 32.08869,0 63.33295,16.04434 81.06617,42.22196 l -31.24425,23.6443 C 137.64361,135.95472 119.06594,125.82145 98.7994,125.82145 Z m 748.17323,42.22197 H 961.81637 C 950.83866,120.75482 904.3945,122.4437 904.3945,122.4437 c 0,0 -42.22197,-3.37776 -57.42187,45.59972 z m 56.57743,-81.06618 c 0,0 101.33274,-3.37775 96.26608,113.99931 H 846.12819 c 3.37776,14.35547 10.13327,26.17762 21.11098,36.31089 10.97771,10.13327 25.33318,15.19991 41.37753,15.19991 0,0 32.93313,1.68888 52.35523,-26.17762 l 28.71094,21.11098 c -7.59995,10.97771 -20.26654,20.26655 -37.15533,28.71094 -14.35547,6.75551 -31.24425,10.97771 -47.2886,10.97771 -54.88856,0 -96.26608,-44.75528 -96.26608,-99.64384 -0.84444,-55.73299 41.37752,-100.48828 94.5772,-100.48828 z m -139.33249,98.7994 c 0,0 21.11099,12.66659 20.26655,42.22197 0,0 1.68888,41.37753 -43.91085,54.88855 0,0 -54.04411,17.73323 -97.95496,-26.17761 l 20.26655,-27.8665 c 44.75528,37.15533 74.31066,16.04435 74.31066,16.04435 5.06663,-4.2222 7.59995,-9.28884 7.59995,-15.19991 0,-15.19991 -19.4221,-20.26655 -19.4221,-20.26655 -5.91108,-1.68887 -11.82215,-4.22219 -19.42211,-5.91107 0,0 -23.6443,-5.91108 -41.37752,-16.88879 -5.91108,-4.22219 -10.97772,-9.28883 -15.19991,-16.04434 -4.2222,-6.75552 -5.91108,-15.19991 -5.91108,-25.33318 0,0 -1.68888,-37.99977 33.77758,-54.04412 0,0 49.82192,-21.11098 96.26608,16.04435 l -20.26655,29.55537 c -21.11098,-16.04434 -42.22196,-15.1999 -42.22196,-15.1999 -9.28883,0 -15.19991,1.68887 -20.26655,5.91107 -4.22219,4.2222 -6.75551,7.59996 -6.75551,12.66659 0,0 -1.68888,11.82215 19.4221,20.26654 5.91108,1.68888 11.82216,4.2222 19.42211,5.91108 6.75551,1.68888 14.35547,5.06664 21.11098,6.75551 7.59996,5.06664 14.35547,9.28884 20.26654,12.66659 z M 586.04088,0 c 15.19991,0 27.02206,11.82215 27.02206,27.86649 0,16.04435 -11.82215,27.8665 -27.02206,27.8665 -15.19991,0 -27.02206,-11.82215 -27.02206,-27.8665 C 559.01882,11.82215 570.84097,0 586.04088,0 Z"
     inkscape:connector-curvature="0"
     style="fill:#ff4d3f;fill-opacity:0.94117647;stroke-width:8.44439316" />
</svg>
