<svg version="1.2" xmlns="http://www.w3.org/2000/svg" viewBox="0 0 1018 1541" width="1018" height="1541">
	<title>pony-logo-official-svg</title>
	<style>
		.s0 { fill: #97dbe5 } 
		.s1 { fill: #9a9a9a } 
	</style>
	<g id="#97dbe5ff">
		<path class="s0" d="m323.2 34.9c102.8-40.6 219-45.8 325.3-15.4 92 26.3 176.2 79.3 239.7 150.8 81.3 90.4 128 210.7 129 332.3-77.1 0.6-154.3-0.3-231.4 0.4-1.9-33.6-7.1-67.3-20.1-98.6-27.6-69.7-85-126.7-154.9-153.7-66.6-26.3-143.5-24.9-209 3.9-60.9 26.2-111.3 75.3-139.3 135.3-16.3 34.7-25.1 72.9-25.6 111.3-78 0.7-156.1 0.1-234.1 0.3-0.3-12.1 0.9-24.2-1-36.1-1.2-7.8 1.7-15.4 2.5-23.1 12.1-96 53.2-188 115.7-261.8 54.3-64.4 124.8-114.9 203.2-145.6z"/>
		<path class="s0" d="m0.6 502.2c78.6 0.1 157.1-0.2 235.6 0.2-0.2 13.3-0.3 26.7 0.3 40-1 141.4-0.2 282.8-0.5 424.3 0 191.3 0.2 382.6 0 574-78.4 0.2-156.8 0-235.2 0.1-0.4-242.1 0-484.1-0.2-726.1-0.4-79.8 0.9-159.7-0.6-239.5v-30.9c0.7-14 0.8-28 0.6-42.1z"/>
	</g>
	<g id="#9a9a9aff">
		<path class="s1" d="m236.5 542.4c1.3 19.7 2.4 39.6 7.2 58.9 17 75.9 68.4 143 136.9 179.7 55 30 120.5 39.9 182 28 66.1-12.3 126.8-50.3 167.2-104.1 35.2-46.1 54.7-103.8 55.4-161.8 77.3-0.2 154.6-0.1 232-0.1-0.9 120.7-47 240.1-127.1 330.4-94.4 107.8-236.4 173.7-380.2 171.8-96.4 1.8-192.6-27-273.9-78.5 0.3-141.5-0.5-282.9 0.5-424.3z"/>
	</g>
</svg>