<svg id="logosandtypes_com" xmlns="http://www.w3.org/2000/svg" viewBox="0 0 150 150"><path fill="none" d="M0 0h150v150H0z"/><path fill="#0078FF" d="M32.6365 96.5204L63.4872 42.915l23.089 13.288-30.8509 53.6054zM94.2851 96.4795l30.8508-53.6054 23.0889 13.288-30.8508 53.6054z"/><path fill="#00E89D" d="M150 49.55c0 7.34-5.98 13.32-13.32 13.32s-13.32-5.98-13.32-13.32 5.98-13.32 13.32-13.32c7.39 0 13.32 5.97 13.32 13.32M44.19 116.48c-4.61 0-9.08-2.4-11.58-6.68L1.79 56.18c-3.67-6.35-1.51-14.5 4.89-18.17 6.4-3.67 14.54-1.51 18.22 4.89l30.83 53.56c3.67 6.4 1.46 14.54-4.89 18.22-2.13 1.23-4.39 1.8-6.65 1.8zM105.85 116.48c-4.61 0-9.08-2.4-11.58-6.68L63.44 56.18c-3.67-6.4-1.46-14.54 4.89-18.22 6.4-3.67 14.54-1.46 18.22 4.89l30.83 53.61c3.67 6.4 1.46 14.54-4.89 18.22-2.07 1.23-4.38 1.8-6.64 1.8z"/></svg>