<svg version="1.2" xmlns="http://www.w3.org/2000/svg" viewBox="0 0 1552 1646" width="1552" height="1646">
	<title>WRD_BIG</title>
	<style>
		.s0 { fill: #00c8c8 } 
		.s1 { fill: #0094ff } 
	</style>
	<path class="s0" d="m113.4 252.4c-4.7 1.3-12.3 3-17 4.3-4.7 1.2-12.4 4.7-17.5 7.2-5.6 2.1-13.7 6.8-18.4 9.8-4.6 3.4-12.7 9.8-17.4 14.5-4.7 4.7-12 12.8-16.2 17.9-4.3 5.6-9 14.1-12.4 20.5-3 6-6.4 14.1-7.7 17.9-1.3 4.3-3.4 11.1-4.2 16.2l-2.2 8.5c-0.4 705.2-0.4 828.4 0.5 839.9 0.4 8.6 1.7 22.2 2.9 29.9 0.9 7.7 2.6 19.6 3.9 26.9 1.3 6.8 3.8 19.1 5.9 27.7 2.2 8.1 6 21.7 8.6 30.2 3 8.6 7.6 22.2 11.1 30.3 2.9 8.1 9.8 23.5 15.3 34.1 5.1 10.2 12.4 24.7 16.6 31.6 4.3 6.8 10.7 17 14.5 22.6 3.4 5.5 10.7 15.3 15.8 22.1 5.1 6.9 13.2 17.1 18.3 22.6 4.7 6 15.4 17.1 23.9 25.6 8.1 8.1 20.1 19.2 26 24.3 6.4 5.6 15 12.4 19.2 15.4 4.3 3.4 11.1 8.5 15.4 11.5 4.2 3 12.3 8.5 17.9 11.9 5.9 3.9 17 10.2 24.7 14.5 7.7 4.3 19.6 10.7 26.9 13.7 7.2 3.4 18.3 8.1 24.3 10.6 5.9 2.1 16.6 6 23.8 8.5 7.3 2.6 19.2 6 26.9 8.1 7.7 1.7 20.5 4.7 28.1 6.4 7.7 1.3 20.9 3.4 29 4.3 8.1 1.3 21.8 2.6 29.9 3 8.5 0.4 20.5 0.8 26.8 0.8 6.4 0 18.4-0.4 26.5-0.8 8.5-0.4 21.7-1.7 29.8-3 8.6-0.9 20.5-3 27.3-3.8 6.8-1.3 19.6-4.3 28.6-6.4 8.9-2.2 23.4-6.4 32-9.4 8.9-3 21.7-7.7 28.5-10.7 7.3-3 20.9-9.4 30.3-14 9.8-4.7 24.3-12.8 32.4-17.5 7.7-4.7 19.2-12 24.7-16.2 5.6-3.9 14.5-10.7 20.1-14.5 5.1-4.3 14-11.5 20-17.1 6.4-5.1 12.4-11.1 14.1-12.8 1.7-1.7 3.8-3.4 4.2-3.4 0.5 0 4.7 3.4 9.4 7.7 4.7 4.7 13.2 11.9 19.2 16.6 5.6 5.1 14.9 12.4 20.5 16.2 5.1 4.3 14.9 10.7 21.7 15 6.4 4.2 15.8 10.2 20.9 13.2 5.6 3 16.2 8.9 24.3 12.8 7.7 3.8 18.8 8.9 23.9 11.5 5.1 2.1 14.9 5.9 21.7 8.5 6.9 2.6 17.5 6 24.3 8.1 6.9 2.1 18 5.1 25.2 6.8 6.8 1.7 18.3 4.3 25.2 5.6 6.8 1.2 19.1 2.9 27.2 4.2 7.7 0.9 20.9 2.2 29.5 2.6 8.1 0.4 20 0.8 26.4 0.8 6.4 0 18.8-0.4 26.9-0.8 8.1-0.4 20-1.7 26-2.1 6.4-0.9 16.6-2.6 22.6-3.5 6.4-0.8 17-2.9 23.8-4.6 6.4-1.3 18.8-4.3 26.5-6.9 8.1-2.1 20-5.9 26.8-8.5 6.9-2.1 17.5-6.4 24.3-9.4 6.9-2.5 20.1-8.9 29.9-14 9.8-5.2 23.9-12.8 31.5-17.5 8.1-5.1 18.8-12 24.3-15.8 5.2-3.8 15.4-11.5 22.2-17.1 6.8-5.1 18.4-15.3 25.6-21.7 6.8-6.4 17.9-17.9 24.7-24.7 6.4-7.3 16.2-18.8 21.8-25.6 5.5-7.3 14-18.3 18.7-25.2 4.7-6.8 12-18.3 16.2-25.5 4.3-7.3 11.6-20.1 15.8-29 4.7-8.6 10.7-22.2 14.1-30.3 3.4-7.7 8.5-21.8 11.5-30.3 3-8.5 7.2-24.3 9.8-34.5 2.6-10.3 5.5-24.3 6.8-31.6 1.3-7.2 3-18.7 3.4-25.1 0.9-6.8 2.2-19.2 2.6-27.3 0.4-9.4 0.8-85.7 0.8-204.7 0-125.3-0.4-189.7-0.8-189.7-0.4-0.4-1.7 0.4-3 2.1-1.3 1.3-6.8 8.1-12.8 15-6 6.8-17 18.7-23.9 26-7.2 7.6-18.3 18.3-24.7 23.8-6 5.6-15.3 13.7-20.9 18.4-5.1 4.2-14.9 11.9-22.2 17-6.8 5.6-18.3 13.7-25.5 18.4-7.3 4.7-18.4 11.9-24.3 15.7-6.4 3.5-17.5 9.9-24.8 13.7-7.2 3.8-19.6 10.2-28.1 14.1-8.1 3.8-20.9 9.3-28.1 12.3-7.7 3.4-18.8 7.3-24.8 9.4l-11.1 4.3c0 154.3-0.4 191-1.2 196.5-0.5 5.1-1.7 13.2-2.6 17.9-0.9 5.1-3.4 14.1-5.5 20.1-1.7 5.9-5.6 15.7-8.6 21.3-2.5 5.5-6.8 13.6-8.9 17-2.6 3.9-6.4 9.4-8.6 12.8-2.5 3.4-7.6 9.4-11 13.7-3.4 3.8-11.1 11.1-16.7 15.7-5.1 5.2-13.6 11.1-17.9 14.1-4.7 3-14 8.5-20.9 12-6.8 3.4-17.4 7.6-23.4 9.8-6 1.7-14.9 4.2-20.1 5.1-5.1 1.3-12.7 2.5-17.9 3-4.7 0.4-12.8 0.8-18.3 0.8-5.1 0-13.2-0.4-18.3-0.8-4.7-0.5-12.8-1.7-17.9-3-4.7-0.9-13.7-3-18.8-4.7-5.5-2.1-14.1-5.1-19.2-7.3-5.1-2.5-12.8-6.4-17.5-9.3-4.7-2.6-12.8-8.1-17.9-12-4.7-3.8-12.8-10.6-17.9-15.8-5.1-5.1-12.3-12.7-15.8-17.9-3.4-4.7-8.9-11.9-11.5-16.6-3-4.3-7.2-11.9-9.4-16.6-2.1-4.7-5.1-12.4-6.8-16.6-1.7-4.7-3.8-12.8-5.1-18-1.3-5.1-3-14-3.8-20-1.3-8.9-1.3-25.1-1.3-106.2v-95c-13.7-5.2-25.2-9.4-34.1-12.8-9-3.4-22.6-9.4-30.7-13.2-8.1-3.9-21.8-10.7-30.3-15.4-8.9-4.7-22.2-12.4-29.4-17-7.7-4.7-20-12.8-27.7-18.4-7.7-5.5-19.6-14-26-19.6-6.9-5.1-17.1-13.6-23.1-18.8-5.5-5.1-16.6-15.3-24.7-23-7.7-7.6-18.7-19.2-24.3-25.6-5.5-5.9-13.2-14.9-16.6-19.1-3.9-4.3-6.8-7.7-7.3-7.3-0.8 0-1.2 64-1.2 188.9 0 123.6 0 191-0.9 197-0.4 5.1-1.7 13.2-2.6 18.3-1.2 5.1-3.8 14.5-5.5 20.5-2.1 5.9-6 15.7-9 22.1-2.9 6.4-8.1 15-10.6 19.2-2.6 4.3-7.7 11.1-11.1 15.4-3 4.2-9 10.6-13.2 14.9-3.9 3.8-10.2 9.8-14.1 12.8-3.4 3-10.6 8.1-15.8 11.5-4.7 3-14 8.1-20.4 11.1-6 3-16.2 7.2-22.2 9.4-6 1.7-14.9 4.2-19.6 5.1-5.1 1.3-13.2 2.5-17.9 3-5.1 0.4-13.2 0.8-18.4 0.8-5.1 0-13.6-0.4-18.3-0.8-5.1-0.5-12.8-1.7-17.9-3-5.1-0.9-14.1-3.4-20-5.1-6-2.2-15.4-6-20.9-8.6-5.6-3-14.1-7.6-19.2-11.1-5.6-3.4-13.2-9.3-17.9-13.2-4.3-3.8-11.1-10.2-15.4-14.5-3.8-4.2-9.8-11.5-13.6-16.2-3.4-4.7-8.1-11.1-10.2-14.5-1.8-3.4-5.6-10.2-8.1-14.9-2.2-5.1-5.6-12.8-7.7-17-1.7-4.7-4.3-12.8-6-18.8-1.3-5.5-3.4-14.1-4.3-18.8-1.2-8.1-1.7-32.4-2.1-425-0.4-397.8-0.4-416.6-2.1-424.7-0.9-4.7-3-13.6-5.1-19.6-2.2-6-6-14.9-8.6-20-2.5-5.6-7.2-12.8-10.2-17.1-2.6-3.8-9.4-11.5-14.5-16.6-6.4-6.4-13.2-12-20-16.7-5.6-3.8-13.7-8.5-17.9-10.2-4.3-2.1-11.1-4.7-15-6-4.2-1.7-11.1-3.4-15.7-4.2-6-1.7-12.4-2.1-25.6-2.6-14.5 0-19.2 0-26.9 1.3z"/>
	<path fill-rule="evenodd" class="s1" d="m1092.4 0c9.8 0 23.8 0.4 31.1 0.9 7.7 0.4 20.5 1.7 28.6 2.9 8.1 0.9 20.4 3 27.2 3.9 6.4 1.3 19.2 4.2 27.8 6.4 8.9 2.1 22.1 5.9 30.2 8.5 7.7 2.6 19.6 6.8 26.5 9.8 6.8 2.6 19.6 8.1 28.1 12.4 8.5 4.2 20.9 10.6 27.7 14.5 6.4 3.4 19.6 11.5 28.6 17.4 8.9 6 20.5 14.5 26 18.8 5.5 4.3 14.9 11.9 20.9 17.1 6 5.1 17.9 16.6 26.9 25.5 8.5 9 20 21.8 25.1 28.2 5.6 6.4 13.7 17 18.3 23.9 5.2 6.8 12 17 15.4 22.6 3.8 5.9 10.2 16.6 14.5 24.3 3.8 7.2 10.2 19.6 13.6 26.8 3.4 7.7 8.1 18.8 10.7 24.7 2.1 6 6 16.2 8.1 23.1 2.6 6.8 6 18.3 8.1 25.5 2.1 7.7 4.7 19.7 6.4 26.9 1.3 7.3 3.4 18.8 4.3 25.2 1.2 6.8 2.5 20 3.4 29 1.2 13.2 1.2 23.8 0.8 47.3 0 19.6-0.8 34.5-1.7 42.6-0.8 6.4-2.5 17.1-3.4 23.5-0.8 6.4-3.4 17.9-5.1 26-1.7 7.6-4.7 20.4-7.3 28.1-2.1 8.1-5.9 20.1-8.5 26.9-2.5 7.2-7.2 19.2-10.6 27.3-3.5 8.1-9.4 20.4-13.7 28.1-3.8 7.2-9.4 17.9-12.8 23-3 5.1-8.9 14.5-12.8 20.5-3.8 6-10.6 15.3-14.5 20.9-4.2 5.1-10.2 13.2-13.6 17-3.4 3.9-11.1 12.8-17.1 19.6-6.4 6.4-17 17.1-23.8 23.5-6.9 6.4-15.8 14.1-19.2 17.1-3.9 3.4-12.4 9.8-18.8 14.4-6.4 5.2-17 12.4-23.4 16.7-6.4 4.2-16.7 10.6-23.1 14-6.4 3.9-17.4 9.9-24.7 13.3-7.7 3.8-19.2 8.9-26 11.9-6.8 2.6-20.5 8.1-30.7 11.1-10.2 3.4-26 8.1-35.4 10.6-9.4 2.2-22.6 5.2-29.8 6.4-7.3 1.3-20.1 3-29 3.9q-15.8 2.1-41 2.5c-15.7 0.5-31.1 0-40.9-0.4-8.5-0.8-20-1.7-25.6-2.5-5.9-0.9-15.3-2.2-21.3-3-6-1.3-16.6-3-23-4.7-6.8-1.3-17.5-4.3-23.5-6-5.9-1.7-15.7-4.7-22.1-6.8-6-1.7-17.1-6-24.8-9-7.2-3.4-19.2-8.5-26.4-11.5-6.8-3.4-18.3-9.4-25.2-13.2-6.8-3.8-17-10.2-22.6-13.6-5.5-3.5-14.5-9.4-20.4-13.7-5.6-4.2-13.7-10.2-17.9-13.6-4.3-3.4-12-9.8-16.7-14.1-5.1-4.3-15.7-14.1-23.4-21.7-7.7-7.7-17.9-18.8-23-24.3-4.7-6-12.8-16.2-17.9-22.6-5.2-6.9-12-16.2-15-20.9-3.4-4.7-9.4-14.5-13.6-21.3-3.9-6.9-10.7-19.2-14.9-27.8-4.3-8.1-9.8-20.4-12.8-27.7-3-6.8-7.7-19.2-10.7-27.3-3-8.5-6.8-20.9-8.9-27.7-1.7-7.2-4.7-19.2-6.4-27.3-1.7-8.1-4.3-21.7-5.6-30.2-1.3-9-2.5-21.4-3.4-28.2-0.4-6.8-0.8-23.4-0.8-37.5 0-14.1 0.4-31.1 0.8-37.5 0.9-6.8 1.7-17.1 2.6-22.6 0.8-6 2.5-16.2 3.8-23.5 0.9-6.8 3.8-19.1 6-27.2 1.7-8.6 5.5-21.4 8.1-29 2.1-7.7 6.8-20.9 10.2-29 3.4-8.6 9-21.3 12.8-29 3.4-7.7 9-18.8 11.9-24.3 3.4-5.6 9-14.5 12.4-20.5 3.8-6 9.8-15.3 13.2-20 3.4-5.1 9.8-13.7 14.1-19.2 4.3-5.6 11.9-14.5 17-20.5 5.2-5.5 14.1-15.3 20.1-21.3 6-6 15.3-14.9 20.9-19.6 5.9-5.1 14.9-12.8 20.4-17.1 5.6-4.7 15.4-11.9 22.2-16.6 6.8-4.7 17.9-11.9 25.2-16.2 7.2-4.3 20.4-11.5 29-15.8 8.9-4.2 21.3-10.2 28.1-13.2 6.8-3 17.9-7.2 24.3-9.4 6.8-2.5 18.8-6.4 26.9-8.5 8.1-2.6 20-5.5 26.8-6.8 6.4-1.7 18.4-3.9 25.6-5.1 7.7-1.3 20.5-3 28.6-3.4 8.1-0.9 17.5-1.7 20.4-2.2 3 0 13.3 0 23.1-0.4zm-39.7 255.8c-4.2 0.9-12.3 3-17.9 4.7-5.5 1.7-14.5 4.7-20 7.3-5.1 2.1-13.2 5.9-17.1 8.1-3.8 2.1-11.5 6.8-16.6 10.2-5.1 3.4-13.2 9.4-17.9 12.8-4.3 3.8-12 11.1-17.1 16.2-5.1 5.5-11.5 12.8-14.5 17-3 3.9-7.6 10.3-10.2 14.5-2.6 3.9-7.7 12.8-11.5 20.1-3.4 7.2-8.1 19.2-10.7 26-2.1 6.8-5.1 17.9-6.4 23.9-1.3 6.3-2.5 16.2-3.4 22.1-0.4 6.8-0.8 16.6-0.4 26 0.4 8.6 1.3 19.6 2.5 25.6 0.9 6 2.6 14.1 3.5 17.9 0.8 3.4 2.9 10.7 4.6 15.4 1.8 4.7 4.7 12.8 6.9 17.4 2.1 5.2 6.8 13.7 9.8 19.2 3 5.6 8.5 13.7 11.5 17.9 3 4.3 8.9 11.6 12.8 15.8 4.2 4.7 10.6 11.1 14.1 14.5 3.8 3.4 9.8 8.5 13.2 11.5 3.4 2.6 10.2 7.3 14.9 10.3 4.7 3.4 12.8 8.1 18.3 10.6 5.1 2.6 13.7 6.4 18.8 8.5 5.1 2.2 12.8 4.7 17 6 4.3 1.3 12 3 16.7 3.8 4.7 0.9 12.3 2.6 17 3 4.7 0.5 15.4 1.3 23.5 1.3 8.1 0 19.2-0.4 23.9-1.3 5.1-0.4 14-2.1 19.6-3.4 5.5-1.3 15.7-3.8 22.6-6.4 6.8-2.1 17.9-6.8 24.7-10.2 7.2-3.4 17-9 21.7-12.4 5.2-3 12.8-8.5 17.1-11.9 4.3-3.4 12.4-11.1 17.9-17.1 6-5.9 13.6-14.9 17.5-19.6 3.4-5.1 8.5-12.8 11.1-17 2.5-3.9 7.2-12.4 9.8-17.9 2.5-5.6 6.4-14.5 8.1-19.6 2.1-4.7 4.7-13.7 5.9-19.7 1.7-5.9 3.5-15.7 4.3-20.9 1.3-7.2 1.7-15.3 1.7-28.5 0-13.2-0.4-21.8-1.7-29-0.8-6-3-15.8-4.7-22.2-1.7-6.4-4.7-16.6-7.2-22.6-2.2-5.9-6.4-14.9-9-20-2.5-5.1-7.7-13.7-11.5-19.6-3.4-5.6-9.8-14.1-13.6-18.4-3.9-4.7-10.7-11.9-15.4-16.6-4.7-4.3-12.4-11.1-17-14.5-4.7-3.8-12-8.9-16.7-11.9-4.7-2.6-11.9-6.8-16.6-9.4-4.7-2.1-12.4-5.5-17.1-7.3-4.2-2.1-11.9-4.6-17-5.9-5.1-1.3-12-3.4-15.4-4.3-3.4-0.4-11-1.7-17-2.5-6.4-0.9-16.6-1.3-26.5-1.3-8.9 0-20 0.4-24.7 1.3-4.7 0.4-12.3 1.7-16.2 2.5z"/>
</svg>