<?xml version="1.0" encoding="UTF-8" standalone="no"?>
<!-- Created with Inkscape (http://www.inkscape.org/) -->

<svg
   width="28.035835mm"
   height="26.458334mm"
   viewBox="0 0 28.035836 26.458334"
   version="1.1"
   id="svg5"
   inkscape:version="1.1.2 (b8e25be833, 2022-02-05)"
   sodipodi:docname="ZOOX (vertical).svg"
   xmlns:inkscape="http://www.inkscape.org/namespaces/inkscape"
   xmlns:sodipodi="http://sodipodi.sourceforge.net/DTD/sodipodi-0.dtd"
   xmlns:xlink="http://www.w3.org/1999/xlink"
   xmlns="http://www.w3.org/2000/svg"
   xmlns:svg="http://www.w3.org/2000/svg">
  <sodipodi:namedview
     id="namedview7"
     pagecolor="#ffffff"
     bordercolor="#111111"
     borderopacity="1"
     inkscape:pageshadow="0"
     inkscape:pageopacity="0"
     inkscape:pagecheckerboard="1"
     inkscape:document-units="mm"
     showgrid="false"
     inkscape:zoom="2.4138848"
     inkscape:cx="96.73204"
     inkscape:cy="30.863113"
     inkscape:window-width="1128"
     inkscape:window-height="682"
     inkscape:window-x="-6"
     inkscape:window-y="-6"
     inkscape:window-maximized="1"
     inkscape:current-layer="layer1" />
  <defs
     id="defs2">
    <polygon
       id="logo-header-a"
       points="21.185,21.192 0.094,21.192 0.094,0 21.185,0 " />
    <polygon
       id="logo-header-c"
       points="20.985,21.042 0.003,21.042 0.003,0.06 20.985,0.06 " />
    <polygon
       id="logo-header-e"
       points="21.132,21.042 0.15,21.042 0.15,0.06 21.132,0.06 " />
    <filter
       style="color-interpolation-filters:sRGB"
       inkscape:label="Invert"
       id="filter331"
       x="0"
       y="0"
       width="1"
       height="1">
      <feColorMatrix
         type="hueRotate"
         values="180"
         result="color1"
         id="feColorMatrix327" />
      <feColorMatrix
         values="-1 0 0 0 1 0 -1 0 0 1 0 0 -1 0 1 -0.21 -0.72 -0.07 1.5 0 "
         result="color2"
         id="feColorMatrix329" />
    </filter>
  </defs>
  <g
     inkscape:label="Layer 1"
     inkscape:groupmode="layer"
     id="layer1"
     transform="translate(96.93472,-76.653433)">
    <g
       fill="none"
       fill-rule="evenodd"
       id="g35"
       transform="matrix(0.52951125,0,0,0.52951125,-96.93472,76.636204)">
      <g
         transform="matrix(1.0098211,0,0,0.99344127,31.553569,28.932949)"
         id="g19"
         style="fill:#000000">
        <mask
           id="logo-header-b"
           fill="#ffffff">
          <use
             xlink:href="#logo-header-a"
             id="use14"
             x="0"
             y="0"
             width="100%"
             height="100%" />
        </mask>
        <path
           fill="#000000"
           d="M 0.39305687,21.19178 H 2.8492508 c 0.1831138,0 0.3575863,-0.08053 0.4795936,-0.221243 l 7.2513066,-8.367591 c 0.03189,-0.03666 0.08744,-0.03666 0.119333,0 l 7.251306,8.367591 c 0.122213,0.140714 0.29648,0.221243 0.479594,0.221243 h 2.456194 c 0.222205,0 0.339892,-0.270408 0.191961,-0.441214 L 12.346685,10.674703 c -0.02716,-0.03136 -0.02716,-0.07883 0,-0.109986 L 21.119688,0.44138328 C 21.267619,0.27078911 21.149933,-4.2383645e-5 20.927727,-4.2383645e-5 h -2.455988 c -0.18332,0 -0.357792,0.08052892364 -0.479799,0.221454543645 L 10.699484,8.6362611 c -0.03189,0.036874 -0.08744,0.036874 -0.119333,0 L 3.2876952,0.22141216 C 3.1656879,0.08048654 2.9912155,-4.2383645e-5 2.8078959,-4.2383645e-5 H 0.3519077 c -0.22220552,0 -0.33989214,0.270831493645 -0.19175513,0.441425663645 L 8.9329499,10.564717 c 0.027158,0.03115 0.027158,0.07862 0,0.109986 L 0.20109599,20.750566 c -0.14772552,0.170806 -0.0302446,0.441214 0.19196088,0.441214"
           mask="url(#logo-header-b)"
           id="path17"
           style="fill:#000000" />
      </g>
      <mask
         id="logo-header-d"
         fill="#ffffff">
        <use
           xlink:href="#logo-header-c"
           id="use21"
           x="0"
           y="0"
           width="100%"
           height="100%" />
      </mask>
      <path
         fill="#000000"
         d="M 20.657495,18.419554 H 2.6876686 c -0.033991,0 -0.061477,-0.02749 -0.061477,-0.06148 v -0.03588 c 0,-0.03168 0.014687,-0.06148 0.039446,-0.08099 L 20.475371,4.3962331 C 20.794927,4.1478062 20.981877,3.7657239 20.981877,3.3607713 V 1.3712578 c 0,-0.72429874 -0.586867,-1.31137516 -1.311166,-1.31137516 H 0.33117993 c -0.18086486,0 -0.32773888,0.14687401 -0.32773888,0.32794869 V 2.3542646 c 0,0.1810747 0.14687402,0.3279487 0.3279487,0.3279487 H 18.301216 c 0.03399,0 0.06127,0.027277 0.06127,0.061268 V 2.77936 c 0,0.031683 -0.01448,0.061477 -0.03924,0.08099 L 0.50994659,16.708052 c -0.31976572,0.248637 -0.50692518,0.631139 -0.50671536,1.036092 l 0.00125892,1.988674 c 0.00125892,0.723459 0.58812553,1.309067 1.31158495,1.309067 H 20.657495 c 0.181074,0 0.327739,-0.146874 0.327739,-0.327739 v -1.966853 c 0,-0.181074 -0.146665,-0.327739 -0.327739,-0.327739"
         mask="url(#logo-header-d)"
         id="path24"
         transform="matrix(1.0043629,0,0,1.0043629,-1.4096723e-5,-0.02772425)" />
      <g
         transform="matrix(1.004936,0,0,1.004936,31.601533,8.4245147e-4)"
         id="g31">
        <mask
           id="logo-header-f"
           fill="#ffffff">
          <use
             xlink:href="#logo-header-e"
             id="use26"
             x="0"
             y="0"
             width="100%"
             height="100%" />
        </mask>
        <path
           fill="#000000"
           d="M 13.920195,0.05990362 H 7.3612208 c -3.9828037,0 -7.21151421,3.22871058 -7.21151421,7.21151428 v 6.5589741 c 0,3.982804 3.22871051,7.211514 7.21151421,7.211514 h 6.5589742 c 3.982803,0 7.211514,-3.22871 7.211514,-7.211514 V 7.2714179 c 0,-3.9828037 -3.228711,-7.21151428 -7.211514,-7.21151428 m 0,2.62275028 c 2.530219,0 4.588764,2.0585443 4.588764,4.588764 v 6.5589741 c 0,2.530219 -2.058545,4.588764 -4.588764,4.588764 H 7.3612208 c -2.5302196,0 -4.5887639,-2.058545 -4.5887639,-4.588764 V 7.2714179 c 0,-2.5302197 2.0585443,-4.588764 4.5887639,-4.588764 h 6.5589742"
           mask="url(#logo-header-f)"
           id="path29" />
      </g>
      <path
         fill="#000000"
         d="M 13.831843,28.924512 H 7.2436452 C 3.2430961,28.924512 0,32.167609 0,36.168157 v 6.588198 C 0,46.756904 3.2430961,50 7.2436452,50 h 6.5881978 c 4.000548,0 7.243645,-3.243096 7.243645,-7.243645 v -6.588198 c 0,-4.000548 -3.243097,-7.243645 -7.243645,-7.243645 m 0,2.634436 c 2.541493,0 4.609209,2.067716 4.609209,4.609209 v 6.588198 c 0,2.541493 -2.067716,4.609209 -4.609209,4.609209 H 7.2436452 c -2.5414931,0 -4.6092092,-2.067716 -4.6092092,-4.609209 v -6.588198 c 0,-2.541493 2.0677161,-4.609209 4.6092092,-4.609209 h 6.5881978"
         id="path33"
         style="stroke-width:0.986291" />
    </g>
  </g>
</svg>
